<svg width="499" height="85" viewBox="0 0 499 85" fill="none" xmlns="http://www.w3.org/2000/svg">
<path d="M74.1039 44.0184C74.1039 32.5677 70.638 23.3957 63.7063 16.5023C56.7747 9.57062 47.6984 6.10478 36.4775 6.10478C34.9456 6.10478 33.1457 6.20052 31.0777 6.392C29.0479 6.54519 27.4012 6.73667 26.1374 6.96645C26.0991 7.92386 26.0608 9.32169 26.0225 11.1599C25.7544 21.3468 25.6204 28.9678 25.6204 34.023C25.6204 38.2356 25.7161 44.2482 25.9076 52.0607C26.0225 55.6222 26.0991 58.437 26.1374 60.5051L26.4821 77.1641C29.1628 78.1215 31.7479 78.8108 34.2371 79.2321C36.7264 79.6533 39.4263 79.864 42.3369 79.864C52.4854 79.864 60.3171 76.7045 65.8318 70.3856C71.3465 64.0283 74.1039 55.2393 74.1039 44.0184ZM87.0864 42.812C87.0864 55.1052 83.0078 65.1389 74.8506 72.9131C66.7318 80.6873 55.8938 84.5744 42.3369 84.5744C39.5029 84.5744 35.635 84.383 30.733 84C25.831 83.617 22.2503 83.4256 19.9908 83.4256C17.8079 83.4256 15.4718 83.483 12.9825 83.5979C10.4933 83.6745 7.73591 83.8085 4.71048 84V81.5299C4.90196 81.5682 5.17004 81.6065 5.51471 81.6448C5.89767 81.6448 6.41468 81.6448 7.06572 81.6448C10.4358 81.6448 12.6379 80.4384 13.6719 78.0257C14.7442 75.5748 15.2803 70.7111 15.2803 63.4347V20.466C15.2803 13.4194 14.7825 8.91957 13.7868 6.96645C12.8294 4.97503 10.589 3.97932 7.06572 3.97932C6.56786 3.97932 6.20404 3.99846 5.97426 4.03676C5.74449 4.03676 5.51471 4.05591 5.28493 4.09421V1.68152C7.46783 1.83471 9.88052 1.96875 12.523 2.08364C15.2037 2.19853 17.693 2.25597 19.9908 2.25597C21.9439 2.25597 25.0843 2.16023 29.4118 1.96875C33.7393 1.73897 36.8796 1.62408 38.8327 1.62408C53.4237 1.62408 65.1042 5.35799 73.8741 12.8258C82.6823 20.2554 87.0864 30.2508 87.0864 42.812ZM198.817 84C198.51 84 197.993 83.9617 197.266 83.8851C191.598 83.5787 187.213 83.4256 184.111 83.4256C181.507 83.4256 177.198 83.5787 171.186 83.8851C170.152 83.9234 169.367 83.9617 168.83 84V81.5299C169.175 81.5299 169.596 81.549 170.094 81.5873C170.592 81.6256 170.956 81.6448 171.186 81.6448C173.943 81.6448 175.896 81.0895 177.045 79.9789C178.232 78.83 178.826 76.8385 178.826 74.0046C178.826 67.9537 178.596 59.4519 178.136 48.4991C177.715 37.508 177.16 26.402 176.471 15.1811L175.896 16.9619L151.769 68.7197C150.467 71.477 149.452 73.9089 148.725 76.0152C148.035 78.1215 147.48 80.4001 147.059 82.8511H144.129C143.861 81.5873 143.44 80.1895 142.865 78.6576C142.291 77.1258 140.951 74.0046 138.844 69.2941L115.866 18.1108L114.143 14.6066L113.511 24.0276C112.975 31.8784 112.554 40.0164 112.247 48.4416C111.941 56.8669 111.788 64.7943 111.788 72.2238C111.788 75.9003 112.4 78.3896 113.626 79.6916C114.89 80.9937 117.207 81.6448 120.577 81.6448C120.998 81.6448 121.592 81.6065 122.358 81.5299V84C121.936 83.9617 121.304 83.9234 120.462 83.8851C115.062 83.5787 111.175 83.4256 108.801 83.4256C106.618 83.4256 103.19 83.5596 98.5179 83.8277C97.3307 83.9043 96.4499 83.9617 95.8755 84V81.5299C96.6797 81.6065 97.2733 81.6448 97.6563 81.6448C99.5328 81.6448 101.007 81.3767 102.08 80.8405C103.19 80.3044 104.071 79.4044 104.722 78.1406C105.411 76.7237 106.12 70.3281 106.847 58.954C106.962 57.4988 107.039 56.4265 107.077 55.7371L108.226 38.159C108.341 36.6654 108.667 32.2613 109.203 24.9467C109.739 17.5937 110.007 13.1513 110.007 11.6195C110.007 8.97702 109.394 7.04304 108.169 5.81755C106.943 4.59206 105.009 3.97932 102.367 3.97932C101.984 3.97932 101.582 4.01761 101.16 4.09421V1.62408C101.505 1.66237 102.022 1.70067 102.711 1.73897C107.46 2.08364 110.677 2.25597 112.362 2.25597C113.549 2.25597 115.062 2.19853 116.9 2.08364C118.777 1.96875 120.672 1.83471 122.587 1.68152C122.511 2.14108 122.453 2.5049 122.415 2.77297C122.377 3.00275 122.358 3.21338 122.358 3.40487C122.358 5.51118 123.928 9.95358 127.068 16.7321C127.566 17.8427 127.949 18.6852 128.217 19.2596L148.84 64.0092L167.05 25.1765C171.301 16.1385 173.828 10.5663 174.632 8.46001C175.475 6.3537 175.896 4.66865 175.896 3.40487C175.896 3.21338 175.877 3.00275 175.839 2.77297C175.8 2.5049 175.743 2.14108 175.666 1.68152C176.471 1.71982 177.581 1.79641 178.998 1.9113C181.985 2.14108 184.283 2.25597 185.892 2.25597C187.194 2.25597 188.917 2.19853 191.062 2.08364C193.244 1.93045 195.044 1.79641 196.461 1.68152V4.09421C196.078 4.01761 195.695 3.97932 195.313 3.97932C192.134 3.97932 189.913 4.57291 188.649 5.76011C187.423 6.909 186.811 8.91957 186.811 11.7918C186.811 12.9024 186.887 15.564 187.04 19.7767C187.232 23.9893 187.443 28.1445 187.672 32.2422L188.821 53.3819C189.281 61.271 189.625 66.9006 189.855 70.2707C190.123 73.6025 190.372 75.8428 190.602 76.9917C190.947 78.7151 191.598 79.9214 192.555 80.6108C193.551 81.3001 195.044 81.6448 197.036 81.6448L198.817 81.5299V84Z" fill="#F7F7F7"/>
<path d="M207.836 77.978C207.836 75.2513 209.107 73.2522 211.65 71.9808C214.208 70.7094 218.023 69.9664 223.093 69.7519V68.1894C223.093 66.7495 222.764 65.5087 222.105 64.467C221.462 63.41 220.175 62.8815 218.245 62.8815C217.019 62.8815 216.039 63.0041 215.304 63.2492C214.568 63.479 213.894 63.793 213.282 64.1913C212.684 64.5742 212.11 65.0721 211.558 65.6848C211.145 66.1444 210.754 66.1674 210.386 65.7538L209.192 64.3751C208.855 63.9921 208.97 63.5326 209.536 62.9964C210.348 62.2305 211.137 61.656 211.903 61.2731C212.669 60.8901 213.619 60.5684 214.752 60.308C215.901 60.0323 217.065 59.8944 218.245 59.8944C221.447 59.8944 223.729 60.7216 225.092 62.376C226.456 64.0151 227.137 66.2669 227.137 69.1315V83.3779C227.137 84.0672 226.793 84.4119 226.103 84.4119H224.035C223.438 84.4119 223.139 84.0672 223.139 83.3779V82.2519H223.093C221.883 83.2017 220.696 83.8681 219.532 84.251C218.383 84.6187 217.096 84.8025 215.671 84.8025C213.159 84.8025 211.221 84.2051 209.858 83.0102C208.51 81.8 207.836 80.1226 207.836 77.978ZM212.018 78.07C212.018 79.0197 212.217 79.7856 212.615 80.3677C213.014 80.9345 213.565 81.3022 214.27 81.4707C214.974 81.6239 215.71 81.7005 216.476 81.7005C217.655 81.7005 218.773 81.5856 219.83 81.3558C220.887 81.126 221.975 80.5209 223.093 79.5405V72.762C219.999 72.9918 217.793 73.2752 216.476 73.6122C215.158 73.9339 214.086 74.5007 213.259 75.3126C212.432 76.1092 212.018 77.0283 212.018 78.07ZM234.72 84.4119C234.031 84.4119 233.686 84.0672 233.686 83.3779V61.319C233.686 60.6297 234.031 60.285 234.72 60.285H236.65C237.34 60.285 237.684 60.6297 237.684 61.319V64.0764H237.776C238.511 62.6977 239.377 61.656 240.373 60.9514C241.368 60.2467 242.609 59.8944 244.095 59.8944C245.076 59.8944 245.765 59.9787 246.163 60.1472C246.515 60.285 246.646 60.5148 246.554 60.8365L246.025 62.7207C245.949 62.9964 245.75 63.1037 245.428 63.0424C244.892 62.9351 244.386 62.8815 243.911 62.8815C242.119 62.8815 240.641 63.6934 239.477 65.3172C238.312 66.9257 237.73 69.1239 237.73 71.9119V83.3779C237.73 84.0672 237.386 84.4119 236.696 84.4119H234.72ZM251.31 84.4119C250.621 84.4119 250.276 84.0672 250.276 83.3779V61.319C250.276 60.6297 250.621 60.285 251.31 60.285H253.286C253.976 60.285 254.32 60.6297 254.32 61.319V83.3779C254.32 84.0672 253.976 84.4119 253.286 84.4119H251.31ZM251.31 55.9192C250.621 55.9192 250.276 55.5745 250.276 54.8852V52.9091C250.276 52.2198 250.621 51.8751 251.31 51.8751H253.286C253.976 51.8751 254.32 52.2198 254.32 52.9091V54.8852C254.32 55.5745 253.976 55.9192 253.286 55.9192H251.31ZM259.536 77.978C259.536 75.2513 260.808 73.2522 263.351 71.9808C265.909 70.7094 269.723 69.9664 274.794 69.7519V68.1894C274.794 66.7495 274.464 65.5087 273.806 64.467C273.162 63.41 271.875 62.8815 269.945 62.8815C268.72 62.8815 267.739 63.0041 267.004 63.2492C266.269 63.479 265.595 63.793 264.982 64.1913C264.385 64.5742 263.81 65.0721 263.259 65.6848C262.845 66.1444 262.455 66.1674 262.087 65.7538L260.892 64.3751C260.555 63.9921 260.67 63.5326 261.237 62.9964C262.049 62.2305 262.837 61.656 263.603 61.2731C264.369 60.8901 265.319 60.5684 266.453 60.308C267.602 60.0323 268.766 59.8944 269.945 59.8944C273.147 59.8944 275.429 60.7216 276.793 62.376C278.156 64.0151 278.838 66.2669 278.838 69.1315V83.3779C278.838 84.0672 278.493 84.4119 277.804 84.4119H275.736C275.138 84.4119 274.84 84.0672 274.84 83.3779V82.2519H274.794C273.583 83.2017 272.396 83.8681 271.232 84.251C270.083 84.6187 268.796 84.8025 267.372 84.8025C264.86 84.8025 262.922 84.2051 261.558 83.0102C260.21 81.8 259.536 80.1226 259.536 77.978ZM263.718 78.07C263.718 79.0197 263.917 79.7856 264.316 80.3677C264.714 80.9345 265.265 81.3022 265.97 81.4707C266.675 81.6239 267.41 81.7005 268.176 81.7005C269.356 81.7005 270.474 81.5856 271.531 81.3558C272.588 81.126 273.675 80.5209 274.794 79.5405V72.762C271.699 72.9918 269.493 73.2752 268.176 73.6122C266.859 73.9339 265.786 74.5007 264.959 75.3126C264.132 76.1092 263.718 77.0283 263.718 78.07ZM302.85 84.4119C302.084 84.4119 301.701 83.9906 301.701 83.1481V52.7253C301.701 51.8828 302.084 51.4615 302.85 51.4615H311.329C317.824 51.4615 322.335 52.9014 324.863 55.7813C327.405 58.6459 328.677 62.6824 328.677 67.8907C328.677 73.0991 327.405 77.1585 324.863 80.069C322.335 82.9643 317.824 84.4119 311.329 84.4119H302.85ZM306.113 80.6435H311.122C316.177 80.6435 319.578 79.5712 321.324 77.4266C323.086 75.282 323.966 72.1033 323.966 67.8907C323.966 63.6781 323.086 60.5071 321.324 58.3779C319.578 56.2486 316.177 55.1839 311.122 55.1839H306.113V80.6435ZM332.744 72.3484C332.744 68.7486 333.694 65.7768 335.593 63.433C337.508 61.0739 340.304 59.8944 343.98 59.8944C347.657 59.8944 350.445 61.0739 352.344 63.433C354.259 65.7768 355.216 68.7486 355.216 72.3484C355.216 75.9483 354.259 78.9278 352.344 81.2869C350.445 83.6306 347.657 84.8025 343.98 84.8025C340.304 84.8025 337.508 83.6306 335.593 81.2869C333.694 78.9278 332.744 75.9483 332.744 72.3484ZM337.018 72.3484C337.018 75.5654 337.654 77.9474 338.925 79.4946C340.197 81.0418 341.882 81.8154 343.98 81.8154C346.079 81.8154 347.764 81.0418 349.035 79.4946C350.307 77.9474 350.943 75.5654 350.943 72.3484C350.943 69.1315 350.307 66.7495 349.035 65.2023C347.764 63.6551 346.079 62.8815 343.98 62.8815C341.882 62.8815 340.197 63.6551 338.925 65.2023C337.654 66.7495 337.018 69.1315 337.018 72.3484ZM361.466 84.4119C360.777 84.4119 360.432 84.0672 360.432 83.3779V61.319C360.432 60.6297 360.777 60.285 361.466 60.285H363.397C364.086 60.285 364.431 60.6297 364.431 61.319V63.1573H364.523C365.518 62.0543 366.591 61.2348 367.739 60.6986C368.888 60.1625 370.321 59.8944 372.036 59.8944C374.824 59.8944 376.823 60.6833 378.034 62.2611C379.259 63.8236 379.872 65.9682 379.872 68.695V83.3779C379.872 84.0672 379.527 84.4119 378.838 84.4119H376.862C376.172 84.4119 375.828 84.0672 375.828 83.3779V69.7979C375.828 66.7954 375.33 64.8959 374.334 64.0994C373.338 63.2875 372.075 62.8815 370.543 62.8815C368.551 62.8815 367.042 63.479 366.016 64.6738C364.99 65.8533 364.477 67.8831 364.477 70.763V83.3779C364.477 84.0672 364.132 84.4119 363.443 84.4119H361.466ZM385.18 63.3181C384.49 63.3181 384.146 63.05 384.146 62.5139V61.0893C384.146 60.5531 384.49 60.285 385.18 60.285H387.891V58.217C387.891 57.9106 387.968 57.6196 388.121 57.3438L389.729 54.4257C390.02 53.8895 390.258 53.6214 390.442 53.6214H391.246C391.705 53.6214 391.935 53.8895 391.935 54.4257V60.285H396.83C397.519 60.285 397.864 60.5531 397.864 61.0893V62.5139C397.864 63.05 397.519 63.3181 396.83 63.3181H391.935V77.9551C391.935 79.5635 392.173 80.6128 392.648 81.103C393.138 81.5779 393.72 81.8154 394.394 81.8154C394.915 81.8154 395.535 81.6622 396.255 81.3558C396.99 81.0494 397.496 80.789 397.772 80.5745C398.047 80.3601 398.262 80.429 398.415 80.7814L399.173 82.5507C399.296 82.857 399.204 83.1021 398.898 83.2859C398.3 83.6383 397.427 83.9829 396.278 84.32C395.129 84.6416 393.98 84.8025 392.831 84.8025C391.238 84.8025 390.013 84.228 389.155 83.0791C388.312 81.9302 387.891 80.3065 387.891 78.2078V63.3181H385.18ZM402.827 82.16C402.352 81.7158 402.252 81.3022 402.528 80.9192L403.562 79.4716C403.899 79.012 404.397 79.035 405.056 79.5405C405.959 80.2299 406.963 80.7814 408.066 81.195C409.184 81.6086 410.455 81.8154 411.88 81.8154C412.723 81.8154 413.473 81.7158 414.132 81.5166C414.791 81.3022 415.365 80.9116 415.855 80.3448C416.361 79.778 416.614 79.0197 416.614 78.07C416.614 77.5185 416.491 76.9976 416.246 76.5075C416.016 76.0173 415.648 75.6266 415.143 75.3356C414.653 75.0292 414.17 74.7918 413.695 74.6233C412.914 74.3322 412.133 74.0948 411.352 73.9109C410.586 73.7118 409.575 73.4131 408.318 73.0148C407.476 72.7544 406.679 72.3867 405.929 71.9119C405.178 71.4217 404.519 70.763 403.953 69.9358C403.401 69.1086 403.125 67.9673 403.125 66.512C403.125 65.0261 403.577 63.747 404.481 62.6747C405.385 61.6024 406.519 60.8748 407.882 60.4918C409.245 60.0935 410.57 59.8944 411.857 59.8944C413.757 59.8944 415.281 60.1165 416.43 60.5608C417.594 60.9897 418.597 61.5029 419.44 62.1003C419.93 62.4526 419.999 62.8586 419.647 63.3181L418.613 64.6968C418.291 65.141 417.793 65.1257 417.119 64.6508C416.552 64.2526 415.748 63.8772 414.706 63.5249C413.665 63.1726 412.753 62.9964 411.972 62.9964C411.007 62.9964 410.18 63.1037 409.49 63.3181C408.801 63.5326 408.242 63.9002 407.813 64.4211C407.384 64.9419 407.17 65.5546 407.17 66.2593C407.17 66.7954 407.254 67.278 407.422 67.7069C407.591 68.1205 407.905 68.5035 408.364 68.8558C408.824 69.2081 409.467 69.4915 410.295 69.706C411.581 70.043 412.753 70.3494 413.81 70.6251C414.883 70.9008 415.848 71.2378 416.705 71.6361C417.824 72.157 418.682 72.7314 419.279 73.3595C419.892 73.9875 420.313 74.6692 420.543 75.4045C420.773 76.1245 420.887 76.9287 420.887 77.8172C420.887 79.4563 420.397 80.8426 419.417 81.9762C418.452 83.1098 417.372 83.8681 416.177 84.251C414.982 84.6187 413.542 84.8025 411.857 84.8025C409.575 84.8025 407.614 84.4808 405.975 83.8374C404.351 83.1787 403.302 82.6196 402.827 82.16ZM424.15 72.3484C424.15 68.7486 425.1 65.7768 427 63.433C428.914 61.0739 431.71 59.8944 435.386 59.8944C439.063 59.8944 441.851 61.0739 443.75 63.433C445.665 65.7768 446.623 68.7486 446.623 72.3484C446.623 75.9483 445.665 78.9278 443.75 81.2869C441.851 83.6306 439.063 84.8025 435.386 84.8025C431.71 84.8025 428.914 83.6306 427 81.2869C425.1 78.9278 424.15 75.9483 424.15 72.3484ZM428.424 72.3484C428.424 75.5654 429.06 77.9474 430.331 79.4946C431.603 81.0418 433.288 81.8154 435.386 81.8154C437.485 81.8154 439.17 81.0418 440.442 79.4946C441.713 77.9474 442.349 75.5654 442.349 72.3484C442.349 69.1315 441.713 66.7495 440.442 65.2023C439.17 63.6551 437.485 62.8815 435.386 62.8815C433.288 62.8815 431.603 63.6551 430.331 65.2023C429.06 66.7495 428.424 69.1315 428.424 72.3484ZM450 61.4109C449.74 60.6603 449.947 60.285 450.621 60.285H453.125C453.616 60.285 453.96 60.5837 454.159 61.1812L459.031 76.3466C459.429 77.5874 459.697 78.4453 459.835 78.9201C459.988 79.3797 460.126 79.9541 460.249 80.6435H460.341C460.463 79.9541 460.593 79.3797 460.731 78.9201C460.884 78.4453 461.16 77.5874 461.558 76.3466L466.43 61.1812C466.629 60.5837 466.974 60.285 467.464 60.285H469.968C470.642 60.285 470.849 60.6603 470.589 61.4109L463.052 83.0102C462.73 83.9446 462.317 84.4119 461.811 84.4119H458.778C458.273 84.4119 457.859 83.9446 457.537 83.0102L450 61.4109ZM473.185 77.978C473.185 75.2513 474.457 73.2522 477 71.9808C479.558 70.7094 483.372 69.9664 488.443 69.7519V68.1894C488.443 66.7495 488.113 65.5087 487.455 64.467C486.811 63.41 485.524 62.8815 483.594 62.8815C482.369 62.8815 481.388 63.0041 480.653 63.2492C479.918 63.479 479.244 63.793 478.631 64.1913C478.034 64.5742 477.459 65.0721 476.908 65.6848C476.494 66.1444 476.103 66.1674 475.736 65.7538L474.541 64.3751C474.204 63.9921 474.319 63.5326 474.886 62.9964C475.697 62.2305 476.486 61.656 477.252 61.2731C478.018 60.8901 478.968 60.5684 480.102 60.308C481.25 60.0323 482.415 59.8944 483.594 59.8944C486.796 59.8944 489.078 60.7216 490.442 62.376C491.805 64.0151 492.487 66.2669 492.487 69.1315V83.3779C492.487 84.0672 492.142 84.4119 491.453 84.4119H489.385C488.787 84.4119 488.489 84.0672 488.489 83.3779V82.2519H488.443C487.232 83.2017 486.045 83.8681 484.881 84.251C483.732 84.6187 482.445 84.8025 481.021 84.8025C478.508 84.8025 476.571 84.2051 475.207 83.0102C473.859 81.8 473.185 80.1226 473.185 77.978ZM477.367 78.07C477.367 79.0197 477.566 79.7856 477.965 80.3677C478.363 80.9345 478.914 81.3022 479.619 81.4707C480.324 81.6239 481.059 81.7005 481.825 81.7005C483.004 81.7005 484.123 81.5856 485.18 81.3558C486.237 81.126 487.324 80.5209 488.443 79.5405V72.762C485.348 72.9918 483.142 73.2752 481.825 73.6122C480.508 73.9339 479.435 74.5007 478.608 75.3126C477.781 76.1092 477.367 77.0283 477.367 78.07Z" fill="#F7F7F7"/>
<path d="M207.836 28.5662C207.836 25.8395 209.107 23.8404 211.65 22.5689C214.208 21.2975 218.023 20.5545 223.093 20.3401V18.7776C223.093 17.3376 222.764 16.0968 222.105 15.0551C221.462 13.9982 220.175 13.4697 218.245 13.4697C217.019 13.4697 216.039 13.5922 215.304 13.8373C214.568 14.0671 213.894 14.3811 213.282 14.7794C212.684 15.1624 212.11 15.6602 211.558 16.273C211.145 16.7325 210.754 16.7555 210.386 16.3419L209.192 14.9632C208.855 14.5803 208.97 14.1207 209.536 13.5846C210.348 12.8186 211.137 12.2442 211.903 11.8612C212.669 11.4782 213.619 11.1566 214.752 10.8961C215.901 10.6204 217.065 10.4825 218.245 10.4825C221.447 10.4825 223.729 11.3097 225.092 12.9642C226.456 14.6032 227.137 16.8551 227.137 19.7197V33.966C227.137 34.6553 226.793 35 226.103 35H224.035C223.438 35 223.139 34.6553 223.139 33.966V32.8401H223.093C221.883 33.7898 220.696 34.4562 219.532 34.8392C218.383 35.2068 217.096 35.3906 215.671 35.3906C213.159 35.3906 211.221 34.7932 209.858 33.5983C208.51 32.3882 207.836 30.7108 207.836 28.5662ZM212.018 28.6581C212.018 29.6078 212.217 30.3738 212.615 30.9559C213.014 31.5227 213.565 31.8903 214.27 32.0588C214.974 32.212 215.71 32.2886 216.476 32.2886C217.655 32.2886 218.773 32.1737 219.83 31.9439C220.887 31.7142 221.975 31.1091 223.093 30.1287V23.3502C219.999 23.58 217.793 23.8634 216.476 24.2004C215.158 24.5221 214.086 25.0888 213.259 25.9007C212.432 26.6973 212.018 27.6164 212.018 28.6581ZM234.72 35C234.031 35 233.686 34.6553 233.686 33.966V2.11856C233.686 1.42923 234.031 1.08456 234.72 1.08456H236.696C237.386 1.08456 237.73 1.42923 237.73 2.11856V21.2362C237.73 21.6958 237.715 22.1553 237.684 22.6149H237.73L247.036 11.4706C247.373 11.0723 247.779 10.8732 248.254 10.8732H250.345C251.509 10.8732 251.708 11.3251 250.943 12.2289L243.727 20.8226L251.977 33.6443C252.559 34.5481 252.36 35 251.379 35H249.127C248.622 35 248.185 34.7166 247.818 34.1498L241.2 23.8327L237.73 27.9687V33.966C237.73 34.6553 237.386 35 236.696 35H234.72ZM255.446 22.9366C255.446 19.1376 256.396 16.1121 258.296 13.8603C260.195 11.6085 262.914 10.4825 266.453 10.4825C269.394 10.4825 271.83 11.5165 273.76 13.5846C275.705 15.6373 276.678 18.9231 276.678 23.4421C276.678 24.1314 276.364 24.4761 275.736 24.4761H259.72C259.981 27.4326 260.777 29.493 262.11 30.6572C263.443 31.8061 264.951 32.3805 266.636 32.3805C268.413 32.3805 269.777 32.0818 270.727 31.4844C271.676 30.8869 272.373 30.2972 272.818 29.7151C273.308 29.0717 273.783 28.9491 274.242 29.3474L275.598 30.5193C275.95 30.8257 275.95 31.2469 275.598 31.7831C275.307 32.2273 274.472 32.9396 273.093 33.92C271.73 34.9004 269.578 35.3906 266.636 35.3906C262.807 35.3906 259.981 34.2647 258.158 32.0129C256.35 29.761 255.446 26.7356 255.446 22.9366ZM259.628 21.489H272.611C272.549 19.3444 271.998 17.4678 270.956 15.8594C269.915 14.2356 268.383 13.4237 266.361 13.4237C264.584 13.4237 263.075 14.0211 261.834 15.216C260.593 16.3955 259.858 18.4865 259.628 21.489ZM281.044 23.9017C280.354 23.9017 280.01 23.6336 280.01 23.0974V21.489C280.01 20.9528 280.354 20.6847 281.044 20.6847H292.027C292.716 20.6847 293.061 20.9528 293.061 21.489V23.0974C293.061 23.6336 292.716 23.9017 292.027 23.9017H281.044ZM298.254 22.4311V3.31342C298.254 2.47089 298.637 2.04963 299.403 2.04963H301.517C302.283 2.04963 302.666 2.47089 302.666 3.31342V21.7417C302.666 26.0309 303.271 28.8343 304.481 30.1517C305.707 31.4537 307.698 32.1048 310.455 32.1048C313.213 32.1048 315.197 31.4537 316.407 30.1517C317.632 28.8343 318.245 26.0309 318.245 21.7417V3.31342C318.245 2.47089 318.628 2.04963 319.394 2.04963H321.508C322.274 2.04963 322.657 2.47089 322.657 3.31342V22.4311C322.657 27.2871 321.538 30.7108 319.302 32.7022C317.081 34.6936 314.132 35.6893 310.455 35.6893C306.779 35.6893 303.822 34.6936 301.586 32.7022C299.365 30.7108 298.254 27.2871 298.254 22.4311ZM330.86 44.1912C330.171 44.1912 329.826 43.8465 329.826 43.1572V11.9072C329.826 11.2178 330.171 10.8732 330.86 10.8732H332.79C333.341 10.8732 333.64 11.2178 333.686 11.9072L333.824 13.7454H333.87C334.712 12.7344 335.662 11.9378 336.719 11.3557C337.776 10.7736 339.186 10.4825 340.947 10.4825C344.011 10.4825 346.339 11.7387 347.932 14.2509C349.526 16.7479 350.322 19.6431 350.322 22.9366C350.322 26.2301 349.526 29.133 347.932 31.6452C346.339 34.1422 344.011 35.3906 340.947 35.3906C339.186 35.3906 337.776 35.0996 336.719 34.5175C335.662 33.9354 334.712 33.1388 333.87 32.1278H333.824C333.855 32.5873 333.87 33.0545 333.87 33.5294V43.1572C333.87 43.8465 333.525 44.1912 332.836 44.1912H330.86ZM333.87 25.579C333.87 27.8768 334.414 29.5925 335.501 30.7261C336.604 31.8444 337.983 32.4035 339.637 32.4035C341.966 32.4035 343.613 31.5303 344.578 29.784C345.558 28.0377 346.048 25.7552 346.048 22.9366C346.048 20.118 345.558 17.8355 344.578 16.0892C343.613 14.3428 341.966 13.4697 339.637 13.4697C337.983 13.4697 336.604 14.0365 335.501 15.17C334.414 16.2883 333.87 17.9963 333.87 20.2941V25.579ZM370.221 35C369.424 35 369.218 34.4945 369.601 33.4835L381.044 3.45128C381.396 2.51685 381.902 2.04963 382.56 2.04963H385.777C386.436 2.04963 386.941 2.51685 387.294 3.45128L398.737 33.4835C399.12 34.4945 398.913 35 398.116 35H395.773C394.961 35 394.409 34.6247 394.118 33.8741L391.246 26.2684H377.091L374.219 33.8741C373.928 34.6247 373.377 35 372.565 35H370.221ZM378.539 22.5H389.798L386.283 13.3088C385.961 12.451 385.639 11.5012 385.318 10.4596C385.011 9.41789 384.644 7.93964 384.215 6.02481H384.123C383.694 7.93964 383.318 9.41789 382.997 10.4596C382.69 11.5012 382.376 12.451 382.055 13.3088L378.539 22.5ZM403.516 35C402.827 35 402.482 34.6553 402.482 33.966V11.9072C402.482 11.2178 402.827 10.8732 403.516 10.8732H405.446C406.136 10.8732 406.48 11.2178 406.48 11.9072V14.6645H406.572C407.307 13.2858 408.173 12.2442 409.169 11.5395C410.164 10.8349 411.405 10.4825 412.891 10.4825C413.871 10.4825 414.561 10.5668 414.959 10.7353C415.311 10.8732 415.442 11.1029 415.35 11.4246L414.821 13.3088C414.745 13.5846 414.546 13.6918 414.224 13.6305C413.688 13.5233 413.182 13.4697 412.707 13.4697C410.915 13.4697 409.437 14.2816 408.273 15.9053C407.108 17.5138 406.526 19.712 406.526 22.5V33.966C406.526 34.6553 406.182 35 405.492 35H403.516ZM417.9 13.9062C417.211 13.9062 416.866 13.6382 416.866 13.102V11.6774C416.866 11.1412 417.211 10.8732 417.9 10.8732H420.612V8.80515C420.612 8.49877 420.688 8.20772 420.841 7.93198L422.45 5.01378C422.741 4.47763 422.978 4.20956 423.162 4.20956H423.966C424.426 4.20956 424.656 4.47763 424.656 5.01378V10.8732H429.55C430.239 10.8732 430.584 11.1412 430.584 11.6774V13.102C430.584 13.6382 430.239 13.9062 429.55 13.9062H424.656V28.5432C424.656 30.1517 424.893 31.201 425.368 31.6912C425.858 32.1661 426.44 32.4035 427.114 32.4035C427.635 32.4035 428.256 32.2503 428.976 31.9439C429.711 31.6376 430.216 31.3771 430.492 31.1627C430.768 30.9482 430.982 31.0172 431.136 31.3695L431.894 33.1388C432.016 33.4452 431.924 33.6903 431.618 33.8741C431.021 34.2264 430.148 34.5711 428.999 34.9081C427.85 35.2298 426.701 35.3906 425.552 35.3906C423.959 35.3906 422.733 34.8162 421.875 33.6673C421.033 32.5184 420.612 30.8946 420.612 28.796V13.9062H417.9ZM437.523 35C436.834 35 436.489 34.6553 436.489 33.966V11.9072C436.489 11.2178 436.834 10.8732 437.523 10.8732H439.5C440.189 10.8732 440.534 11.2178 440.534 11.9072V33.966C440.534 34.6553 440.189 35 439.5 35H437.523ZM437.523 6.50735C436.834 6.50735 436.489 6.16268 436.489 5.47334V3.49724C436.489 2.8079 436.834 2.46323 437.523 2.46323H439.5C440.189 2.46323 440.534 2.8079 440.534 3.49724V5.47334C440.534 6.16268 440.189 6.50735 439.5 6.50735H437.523ZM446.117 32.7482C445.642 32.3039 445.543 31.8903 445.818 31.5074L446.852 30.0597C447.19 29.6002 447.687 29.6232 448.346 30.1287C449.25 30.818 450.253 31.3695 451.356 31.7831C452.474 32.1967 453.746 32.4035 455.171 32.4035C456.013 32.4035 456.764 32.3039 457.422 32.1048C458.081 31.8903 458.656 31.4997 459.146 30.9329C459.651 30.3661 459.904 29.6078 459.904 28.6581C459.904 28.1066 459.781 27.5858 459.536 27.0956C459.307 26.6054 458.939 26.2148 458.433 25.9237C457.943 25.6173 457.461 25.3799 456.986 25.2114C456.205 24.9203 455.423 24.6829 454.642 24.4991C453.876 24.2999 452.865 24.0012 451.609 23.6029C450.766 23.3425 449.97 22.9749 449.219 22.5C448.469 22.0098 447.81 21.3511 447.243 20.5239C446.692 19.6967 446.416 18.5555 446.416 17.1002C446.416 15.6143 446.868 14.3352 447.772 13.2629C448.675 12.1906 449.809 11.4629 451.172 11.08C452.536 10.6817 453.861 10.4825 455.148 10.4825C457.047 10.4825 458.571 10.7047 459.72 11.1489C460.884 11.5778 461.888 12.091 462.73 12.6884C463.22 13.0407 463.289 13.4467 462.937 13.9062L461.903 15.2849C461.581 15.7292 461.084 15.7138 460.409 15.239C459.843 14.8407 459.038 14.4654 457.997 14.1131C456.955 13.7607 456.044 13.5846 455.262 13.5846C454.297 13.5846 453.47 13.6918 452.781 13.9062C452.091 14.1207 451.532 14.4884 451.103 15.0092C450.674 15.53 450.46 16.1428 450.46 16.8474C450.46 17.3836 450.544 17.8661 450.713 18.295C450.881 18.7086 451.195 19.0916 451.655 19.4439C452.114 19.7963 452.758 20.0797 453.585 20.2941C454.872 20.6311 456.044 20.9375 457.101 21.2132C458.173 21.489 459.138 21.826 459.996 22.2243C461.114 22.7451 461.972 23.3195 462.569 23.9476C463.182 24.5757 463.603 25.2574 463.833 25.9926C464.063 26.7126 464.178 27.5169 464.178 28.4053C464.178 30.0444 463.688 31.4308 462.707 32.5643C461.742 33.6979 460.662 34.4562 459.467 34.8392C458.273 35.2068 456.833 35.3906 455.148 35.3906C452.865 35.3906 450.904 35.0689 449.265 34.4256C447.641 33.7669 446.592 33.2077 446.117 32.7482ZM467.579 13.9062C466.889 13.9062 466.545 13.6382 466.545 13.102V11.6774C466.545 11.1412 466.889 10.8732 467.579 10.8732H470.29V8.80515C470.29 8.49877 470.367 8.20772 470.52 7.93198L472.128 5.01378C472.419 4.47763 472.657 4.20956 472.841 4.20956H473.645C474.104 4.20956 474.334 4.47763 474.334 5.01378V10.8732H479.228C479.918 10.8732 480.262 11.1412 480.262 11.6774V13.102C480.262 13.6382 479.918 13.9062 479.228 13.9062H474.334V28.5432C474.334 30.1517 474.572 31.201 475.046 31.6912C475.537 32.1661 476.119 32.4035 476.793 32.4035C477.314 32.4035 477.934 32.2503 478.654 31.9439C479.389 31.6376 479.895 31.3771 480.171 31.1627C480.446 30.9482 480.661 31.0172 480.814 31.3695L481.572 33.1388C481.695 33.4452 481.603 33.6903 481.296 33.8741C480.699 34.2264 479.826 34.5711 478.677 34.9081C477.528 35.2298 476.379 35.3906 475.23 35.3906C473.637 35.3906 472.412 34.8162 471.554 33.6673C470.711 32.5184 470.29 30.8946 470.29 28.796V13.9062H467.579Z" fill="#F7F7F7"/>
</svg>
