<svg width="748" height="127" viewBox="0 0 748 127" fill="none" xmlns="http://www.w3.org/2000/svg">
<path d="M111.156 66.0276C111.156 48.8516 105.957 35.0935 95.5595 24.7534C85.162 14.3559 71.5476 9.15716 54.7162 9.15716C52.4184 9.15716 49.7185 9.30078 46.6165 9.588C43.5719 9.81778 41.1018 10.105 39.2061 10.4497C39.1487 11.8858 39.0912 13.9825 39.0338 16.7399C38.6317 32.0202 38.4306 43.4517 38.4306 51.0345C38.4306 57.3534 38.5742 66.3722 38.8614 78.091C39.0338 83.4334 39.1487 87.6556 39.2061 90.7576L39.7231 115.746C43.7443 117.182 47.6218 118.216 51.3557 118.848C55.0896 119.48 59.1395 119.796 63.5053 119.796C78.7282 119.796 90.4756 115.057 98.7477 105.578C107.02 96.0425 111.156 82.8589 111.156 66.0276ZM130.63 64.2181C130.63 82.6579 124.512 97.7084 112.276 109.37C100.098 121.031 83.8408 126.862 63.5053 126.862C59.2544 126.862 53.4524 126.574 46.0995 126C38.7466 125.426 33.3755 125.138 29.9862 125.138C26.7119 125.138 23.2077 125.224 19.4738 125.397C15.7399 125.512 11.6039 125.713 7.06572 126V122.295C7.35294 122.352 7.75506 122.41 8.27206 122.467C8.84651 122.467 9.62201 122.467 10.5986 122.467C15.6537 122.467 18.9568 120.658 20.5078 117.039C22.1163 113.362 22.9205 106.067 22.9205 95.1521V30.699C22.9205 20.1291 22.1737 13.3794 20.6801 10.4497C19.244 7.46254 15.8835 5.96897 10.5986 5.96897C9.85179 5.96897 9.30607 5.9977 8.9614 6.05514C8.61673 6.05514 8.27206 6.08386 7.92739 6.14131V2.52228C11.2017 2.75206 14.8208 2.95312 18.7845 3.12545C22.8056 3.29779 26.5395 3.38396 29.9862 3.38396C32.9159 3.38396 37.6264 3.24034 44.1176 2.95312C50.6089 2.60845 55.3194 2.43612 58.2491 2.43612C80.1356 2.43612 97.6563 8.03699 110.811 19.2387C124.023 30.383 130.63 45.3761 130.63 64.2181ZM298.225 126C297.765 126 296.99 125.943 295.898 125.828C287.397 125.368 280.819 125.138 276.166 125.138C272.26 125.138 265.797 125.368 256.779 125.828C255.227 125.885 254.05 125.943 253.246 126V122.295C253.763 122.295 254.395 122.324 255.141 122.381C255.888 122.438 256.434 122.467 256.779 122.467C260.915 122.467 263.844 121.634 265.568 119.968C267.348 118.245 268.239 115.258 268.239 111.007C268.239 101.931 267.894 89.1778 267.205 72.7486C266.573 56.2619 265.74 39.6029 264.706 22.7716L263.844 25.4428L227.654 103.08C225.701 107.216 224.179 110.863 223.087 114.023C222.053 117.182 221.22 120.6 220.588 124.277H216.194C215.792 122.381 215.16 120.284 214.298 117.986C213.436 115.689 211.426 111.007 208.266 103.941L173.799 27.1661L171.214 21.9099L170.267 36.0414C169.462 47.8176 168.83 60.0246 168.371 72.6625C167.911 85.3003 167.682 97.1914 167.682 108.336C167.682 113.85 168.601 117.584 170.439 119.537C172.335 121.491 175.81 122.467 180.865 122.467C181.497 122.467 182.387 122.41 183.536 122.295V126C182.904 125.943 181.957 125.885 180.693 125.828C172.593 125.368 166.762 125.138 163.201 125.138C159.926 125.138 154.785 125.339 147.777 125.741C145.996 125.856 144.675 125.943 143.813 126V122.295C145.02 122.41 145.91 122.467 146.484 122.467C149.299 122.467 151.511 122.065 153.119 121.261C154.785 120.457 156.106 119.107 157.083 117.211C158.117 115.085 159.18 105.492 160.271 88.4311C160.443 86.2482 160.558 84.6397 160.616 83.6057L162.339 57.2385C162.512 54.9982 163 48.392 163.804 37.42C164.608 26.3906 165.01 19.727 165.01 17.4292C165.01 13.4655 164.091 10.5646 162.253 8.72633C160.415 6.88809 157.514 5.96897 153.55 5.96897C152.976 5.96897 152.372 6.02642 151.741 6.14131V2.43612C152.258 2.49356 153.033 2.55101 154.067 2.60845C161.19 3.12545 166.016 3.38396 168.543 3.38396C170.324 3.38396 172.593 3.29779 175.35 3.12545C178.165 2.95312 181.009 2.75206 183.881 2.52228C183.766 3.21162 183.68 3.75735 183.622 4.15946C183.565 4.50413 183.536 4.82008 183.536 5.1073C183.536 8.26677 185.892 14.9304 190.602 25.0981C191.349 26.764 191.923 28.0278 192.325 28.8895L223.259 96.0138L250.574 37.7647C256.951 24.2077 260.742 15.8495 261.949 12.69C263.212 9.53056 263.844 7.00298 263.844 5.1073C263.844 4.82008 263.816 4.50413 263.758 4.15946C263.701 3.75735 263.614 3.21162 263.5 2.52228C264.706 2.57973 266.372 2.69462 268.497 2.86695C272.978 3.21162 276.425 3.38396 278.837 3.38396C280.79 3.38396 283.375 3.29779 286.592 3.12545C289.867 2.89567 292.567 2.69462 294.692 2.52228V6.14131C294.118 6.02642 293.543 5.96897 292.969 5.96897C288.201 5.96897 284.869 6.85937 282.973 8.64016C281.135 10.3635 280.216 13.3794 280.216 17.6877C280.216 19.3536 280.331 23.346 280.561 29.665C280.848 35.9839 281.164 42.2167 281.509 48.3633L283.232 80.0728C283.921 91.9065 284.438 100.351 284.783 105.406C285.185 110.404 285.558 113.764 285.903 115.488C286.42 118.073 287.397 119.882 288.833 120.916C290.326 121.95 292.567 122.467 295.554 122.467L298.225 122.295V126Z" fill="black"/>
<path d="M311.753 116.467C311.753 112.377 313.66 109.378 317.474 107.471C321.312 105.564 327.033 104.449 334.639 104.128V101.784C334.639 99.6241 334.145 97.7629 333.157 96.2004C332.192 94.6149 330.262 93.8222 327.366 93.8222C325.528 93.8222 324.058 94.006 322.955 94.3737C321.852 94.7183 320.841 95.1894 319.922 95.7868C319.025 96.3612 318.164 97.108 317.337 98.0271C316.716 98.7165 316.13 98.7509 315.579 98.1305L313.786 96.0625C313.281 95.4881 313.453 94.7987 314.303 93.9945C315.521 92.8456 316.705 91.9839 317.854 91.4095C319.002 90.835 320.427 90.3525 322.127 89.9619C323.851 89.5483 325.597 89.3415 327.366 89.3415C332.169 89.3415 335.593 90.5823 337.638 93.0639C339.683 95.5225 340.705 98.9003 340.705 103.197V124.567C340.705 125.601 340.188 126.118 339.154 126.118H336.052C335.156 126.118 334.708 125.601 334.708 124.567V122.878H334.639C332.824 124.302 331.043 125.302 329.297 125.876C327.573 126.428 325.643 126.704 323.506 126.704C319.738 126.704 316.831 125.807 314.786 124.015C312.764 122.2 311.753 119.684 311.753 116.467ZM318.026 116.605C318.026 118.029 318.325 119.178 318.922 120.051C319.519 120.902 320.347 121.453 321.404 121.706C322.461 121.936 323.564 122.051 324.712 122.051C326.482 122.051 328.159 121.878 329.745 121.534C331.33 121.189 332.962 120.281 334.639 118.811V108.643C329.997 108.988 326.689 109.413 324.712 109.918C322.736 110.401 321.128 111.251 319.887 112.469C318.646 113.664 318.026 115.042 318.026 116.605ZM352.079 126.118C351.045 126.118 350.528 125.601 350.528 124.567V91.4784C350.528 90.4444 351.045 89.9274 352.079 89.9274H354.974C356.008 89.9274 356.525 90.4444 356.525 91.4784V95.6145H356.663C357.766 93.5464 359.065 91.9839 360.558 90.927C362.052 89.87 363.913 89.3415 366.142 89.3415C367.612 89.3415 368.646 89.4679 369.244 89.7206C369.772 89.9274 369.968 90.2721 369.83 90.7546L369.037 93.5809C368.922 93.9945 368.623 94.1554 368.141 94.0634C367.337 93.9026 366.578 93.8222 365.866 93.8222C363.178 93.8222 360.96 95.04 359.214 97.4757C357.468 99.8884 356.594 103.186 356.594 107.368V124.567C356.594 125.601 356.077 126.118 355.043 126.118H352.079ZM376.964 126.118C375.93 126.118 375.413 125.601 375.413 124.567V91.4784C375.413 90.4444 375.93 89.9274 376.964 89.9274H379.928C380.962 89.9274 381.479 90.4444 381.479 91.4784V124.567C381.479 125.601 380.962 126.118 379.928 126.118H376.964ZM376.964 83.3787C375.93 83.3787 375.413 82.8617 375.413 81.8277V78.8635C375.413 77.8295 375.93 77.3125 376.964 77.3125H379.928C380.962 77.3125 381.479 77.8295 381.479 78.8635V81.8277C381.479 82.8617 380.962 83.3787 379.928 83.3787H376.964ZM389.303 116.467C389.303 112.377 391.211 109.378 395.025 107.471C398.862 105.564 404.584 104.449 412.19 104.128V101.784C412.19 99.6241 411.695 97.7629 410.707 96.2004C409.742 94.6149 407.812 93.8222 404.917 93.8222C403.079 93.8222 401.608 94.006 400.505 94.3737C399.402 94.7183 398.391 95.1894 397.472 95.7868C396.576 96.3612 395.714 97.108 394.887 98.0271C394.267 98.7165 393.681 98.7509 393.129 98.1305L391.337 96.0625C390.832 95.4881 391.004 94.7987 391.854 93.9945C393.072 92.8456 394.255 91.9839 395.404 91.4095C396.553 90.835 397.978 90.3525 399.678 89.9619C401.401 89.5483 403.148 89.3415 404.917 89.3415C409.719 89.3415 413.143 90.5823 415.188 93.0639C417.233 95.5225 418.256 98.9003 418.256 103.197V124.567C418.256 125.601 417.739 126.118 416.705 126.118H413.603C412.707 126.118 412.258 125.601 412.258 124.567V122.878H412.19C410.374 124.302 408.593 125.302 406.847 125.876C405.124 126.428 403.194 126.704 401.057 126.704C397.288 126.704 394.382 125.807 392.337 124.015C390.315 122.2 389.303 119.684 389.303 116.467ZM395.576 116.605C395.576 118.029 395.875 119.178 396.473 120.051C397.07 120.902 397.897 121.453 398.954 121.706C400.011 121.936 401.114 122.051 402.263 122.051C404.032 122.051 405.71 121.878 407.295 121.534C408.881 121.189 410.512 120.281 412.19 118.811V108.643C407.548 108.988 404.239 109.413 402.263 109.918C400.287 110.401 398.678 111.251 397.438 112.469C396.197 113.664 395.576 115.042 395.576 116.605ZM454.274 126.118C453.125 126.118 452.55 125.486 452.55 124.222V78.5878C452.55 77.324 453.125 76.6921 454.274 76.6921H466.992C476.735 76.6921 483.502 78.8521 487.293 83.1719C491.107 87.4688 493.014 93.5235 493.014 101.336C493.014 109.148 491.107 115.238 487.293 119.603C483.502 123.946 476.735 126.118 466.992 126.118H454.274ZM459.168 120.465H466.682C474.264 120.465 479.366 118.857 481.985 115.64C484.627 112.423 485.949 107.655 485.949 101.336C485.949 95.017 484.627 90.2606 481.985 87.0667C479.366 83.8727 474.264 82.2758 466.682 82.2758H459.168V120.465ZM499.115 108.023C499.115 102.623 500.54 98.165 503.389 94.6494C506.261 91.1108 510.455 89.3415 515.969 89.3415C521.484 89.3415 525.666 91.1108 528.515 94.6494C531.388 98.165 532.824 102.623 532.824 108.023C532.824 113.422 531.388 117.892 528.515 121.43C525.666 124.946 521.484 126.704 515.969 126.704C510.455 126.704 506.261 124.946 503.389 121.43C500.54 117.892 499.115 113.422 499.115 108.023ZM505.526 108.023C505.526 112.848 506.479 116.421 508.387 118.742C510.294 121.063 512.821 122.223 515.969 122.223C519.117 122.223 521.645 121.063 523.552 118.742C525.459 116.421 526.413 112.848 526.413 108.023C526.413 103.197 525.459 99.6241 523.552 97.3033C521.645 94.9826 519.117 93.8222 515.969 93.8222C512.821 93.8222 510.294 94.9826 508.387 97.3033C506.479 99.6241 505.526 103.197 505.526 108.023ZM542.199 126.118C541.165 126.118 540.648 125.601 540.648 124.567V91.4784C540.648 90.4444 541.165 89.9274 542.199 89.9274H545.094C546.128 89.9274 546.645 90.4444 546.645 91.4784V94.2358H546.783C548.276 92.5814 549.885 91.3521 551.608 90.5478C553.332 89.7436 555.48 89.3415 558.053 89.3415C562.235 89.3415 565.234 90.5248 567.049 92.8916C568.888 95.2353 569.807 98.4522 569.807 102.542V124.567C569.807 125.601 569.29 126.118 568.256 126.118H565.292C564.258 126.118 563.741 125.601 563.741 124.567V104.197C563.741 99.693 562.994 96.8438 561.5 95.6489C560.007 94.4311 558.111 93.8222 555.813 93.8222C552.826 93.8222 550.563 94.7183 549.023 96.5106C547.484 98.2799 546.714 101.324 546.714 105.644V124.567C546.714 125.601 546.197 126.118 545.163 126.118H542.199ZM577.769 94.4771C576.735 94.4771 576.218 94.0749 576.218 93.2707V91.1338C576.218 90.3295 576.735 89.9274 577.769 89.9274H581.836V86.8254C581.836 86.3658 581.951 85.9293 582.18 85.5157L584.593 81.1384C585.03 80.3341 585.386 79.932 585.661 79.932H586.868C587.557 79.932 587.902 80.3341 587.902 81.1384V89.9274H595.243C596.277 89.9274 596.794 90.3295 596.794 91.1338V93.2707C596.794 94.0749 596.277 94.4771 595.243 94.4771H587.902V116.432C587.902 118.845 588.258 120.419 588.97 121.154C589.706 121.867 590.579 122.223 591.59 122.223C592.371 122.223 593.302 121.993 594.382 121.534C595.485 121.074 596.243 120.683 596.656 120.362C597.07 120.04 597.392 120.143 597.621 120.672L598.759 123.326C598.943 123.785 598.805 124.153 598.345 124.429C597.449 124.957 596.139 125.474 594.416 125.98C592.693 126.462 590.969 126.704 589.246 126.704C586.856 126.704 585.018 125.842 583.731 124.119C582.468 122.395 581.836 119.96 581.836 116.812V94.4771H577.769ZM604.239 122.74C603.527 122.074 603.377 121.453 603.791 120.879L605.342 118.707C605.848 118.018 606.594 118.052 607.582 118.811C608.938 119.845 610.443 120.672 612.098 121.292C613.775 121.913 615.682 122.223 617.819 122.223C619.083 122.223 620.209 122.074 621.197 121.775C622.185 121.453 623.047 120.867 623.782 120.017C624.54 119.167 624.919 118.029 624.919 116.605C624.919 115.778 624.735 114.996 624.368 114.261C624.023 113.526 623.472 112.94 622.713 112.503C621.978 112.044 621.254 111.688 620.542 111.435C619.37 110.998 618.198 110.642 617.026 110.366C615.877 110.068 614.361 109.62 612.477 109.022C611.213 108.631 610.018 108.08 608.892 107.368C607.766 106.632 606.778 105.644 605.928 104.404C605.101 103.163 604.687 101.451 604.687 99.268C604.687 97.0391 605.365 95.1204 606.721 93.512C608.076 91.9035 609.777 90.8121 611.822 90.2376C613.867 89.6402 615.854 89.3415 617.785 89.3415C620.634 89.3415 622.92 89.6747 624.644 90.341C626.39 90.9844 627.895 91.7542 629.159 92.6503C629.894 93.1788 629.997 93.7877 629.469 94.4771L627.918 96.5451C627.435 97.2114 626.689 97.1884 625.678 96.4761C624.827 95.8787 623.621 95.3157 622.059 94.7873C620.496 94.2588 619.129 93.9945 617.957 93.9945C616.509 93.9945 615.269 94.1554 614.235 94.4771C613.201 94.7987 612.362 95.3502 611.718 96.1315C611.075 96.9127 610.753 97.8318 610.753 98.8888C610.753 99.693 610.88 100.417 611.133 101.06C611.385 101.681 611.856 102.255 612.546 102.784C613.235 103.312 614.2 103.737 615.441 104.059C617.371 104.564 619.129 105.024 620.714 105.438C622.323 105.851 623.77 106.357 625.057 106.954C626.735 107.735 628.021 108.597 628.917 109.539C629.837 110.481 630.468 111.504 630.813 112.607C631.158 113.687 631.33 114.893 631.33 116.226C631.33 118.684 630.595 120.764 629.124 122.464C627.677 124.165 626.057 125.302 624.264 125.876C622.472 126.428 620.312 126.704 617.785 126.704C614.361 126.704 611.42 126.221 608.961 125.256C606.525 124.268 604.951 123.429 604.239 122.74ZM636.224 108.023C636.224 102.623 637.649 98.165 640.498 94.6494C643.371 91.1108 647.564 89.3415 653.079 89.3415C658.593 89.3415 662.775 91.1108 665.625 94.6494C668.497 98.165 669.933 102.623 669.933 108.023C669.933 113.422 668.497 117.892 665.625 121.43C662.775 124.946 658.593 126.704 653.079 126.704C647.564 126.704 643.371 124.946 640.498 121.43C637.649 117.892 636.224 113.422 636.224 108.023ZM642.635 108.023C642.635 112.848 643.589 116.421 645.496 118.742C647.403 121.063 649.931 122.223 653.079 122.223C656.227 122.223 658.754 121.063 660.661 118.742C662.569 116.421 663.522 112.848 663.522 108.023C663.522 103.197 662.569 99.6241 660.661 97.3033C658.754 94.9826 656.227 93.8222 653.079 93.8222C649.931 93.8222 647.403 94.9826 645.496 97.3033C643.589 99.6241 642.635 103.197 642.635 108.023ZM675 91.6163C674.609 90.4904 674.919 89.9274 675.93 89.9274H679.687C680.423 89.9274 680.94 90.3755 681.238 91.2716L688.545 114.02C689.143 115.881 689.545 117.168 689.752 117.88C689.981 118.569 690.188 119.431 690.372 120.465H690.51C690.694 119.431 690.889 118.569 691.096 117.88C691.326 117.168 691.739 115.881 692.337 114.02L699.644 91.2716C699.942 90.3755 700.459 89.9274 701.195 89.9274H704.951C705.962 89.9274 706.273 90.4904 705.882 91.6163L694.577 124.015C694.094 125.417 693.474 126.118 692.716 126.118H688.166C687.408 126.118 686.787 125.417 686.305 124.015L675 91.6163ZM709.777 116.467C709.777 112.377 711.684 109.378 715.498 107.471C719.336 105.564 725.057 104.449 732.663 104.128V101.784C732.663 99.6241 732.169 97.7629 731.181 96.2004C730.216 94.6149 728.286 93.8222 725.39 93.8222C723.552 93.8222 722.082 94.006 720.979 94.3737C719.876 94.7183 718.865 95.1894 717.945 95.7868C717.049 96.3612 716.188 97.108 715.36 98.0271C714.74 98.7165 714.154 98.7509 713.603 98.1305L711.81 96.0625C711.305 95.4881 711.477 94.7987 712.327 93.9945C713.545 92.8456 714.729 91.9839 715.877 91.4095C717.026 90.835 718.451 90.3525 720.151 89.9619C721.875 89.5483 723.621 89.3415 725.39 89.3415C730.193 89.3415 733.616 90.5823 735.661 93.0639C737.707 95.5225 738.729 98.9003 738.729 103.197V124.567C738.729 125.601 738.212 126.118 737.178 126.118H734.076C733.18 126.118 732.732 125.601 732.732 124.567V122.878H732.663C730.848 124.302 729.067 125.302 727.32 125.876C725.597 126.428 723.667 126.704 721.53 126.704C717.762 126.704 714.855 125.807 712.81 124.015C710.788 122.2 709.777 119.684 709.777 116.467ZM716.05 116.605C716.05 118.029 716.349 119.178 716.946 120.051C717.543 120.902 718.371 121.453 719.428 121.706C720.485 121.936 721.587 122.051 722.736 122.051C724.506 122.051 726.183 121.878 727.769 121.534C729.354 121.189 730.985 120.281 732.663 118.811V108.643C728.021 108.988 724.712 109.413 722.736 109.918C720.76 110.401 719.152 111.251 717.911 112.469C716.67 113.664 716.05 115.042 716.05 116.605Z" fill="black"/>
<path d="M311.753 42.3493C311.753 38.2592 313.66 35.2606 317.474 33.3534C321.312 31.4462 327.033 30.3318 334.639 30.0101V27.6664C334.639 25.5064 334.145 23.6452 333.157 22.0827C332.192 20.4972 330.262 19.7045 327.366 19.7045C325.528 19.7045 324.058 19.8883 322.955 20.256C321.852 20.6006 320.841 21.0717 319.922 21.6691C319.025 22.2436 318.164 22.9903 317.337 23.9095C316.716 24.5988 316.13 24.6333 315.579 24.0129L313.786 21.9449C313.281 21.3704 313.453 20.6811 314.303 19.8768C315.521 18.7279 316.705 17.8663 317.854 17.2918C319.002 16.7174 320.427 16.2348 322.127 15.8442C323.851 15.4306 325.597 15.2238 327.366 15.2238C332.169 15.2238 335.593 16.4646 337.638 18.9462C339.683 21.4049 340.705 24.7826 340.705 29.0795V50.449C340.705 51.483 340.188 52 339.154 52H336.052C335.156 52 334.708 51.483 334.708 50.449V48.7601H334.639C332.824 50.1847 331.043 51.1843 329.297 51.7587C327.573 52.3102 325.643 52.5859 323.506 52.5859C319.738 52.5859 316.831 51.6898 314.786 49.8975C312.764 48.0823 311.753 45.5662 311.753 42.3493ZM318.026 42.4871C318.026 43.9118 318.325 45.0607 318.922 45.9338C319.519 46.784 320.347 47.3355 321.404 47.5882C322.461 47.818 323.564 47.9329 324.712 47.9329C326.482 47.9329 328.159 47.7606 329.745 47.4159C331.33 47.0712 332.962 46.1636 334.639 44.693V34.5253C329.997 34.8699 326.689 35.295 324.712 35.8006C322.736 36.2831 321.128 37.1333 319.887 38.3511C318.646 39.546 318.026 40.9246 318.026 42.4871ZM352.079 52C351.045 52 350.528 51.483 350.528 50.449V2.67785C350.528 1.64384 351.045 1.12684 352.079 1.12684H355.043C356.077 1.12684 356.594 1.64384 356.594 2.67785V31.3543C356.594 32.0437 356.571 32.733 356.525 33.4223H356.594L370.553 16.7059C371.059 16.1085 371.668 15.8097 372.38 15.8097H375.517C377.263 15.8097 377.562 16.4876 376.413 17.8433L365.59 30.7339L377.964 49.9665C378.837 51.3222 378.538 52 377.068 52H373.69C372.932 52 372.277 51.5749 371.725 50.7247L361.799 35.2491L356.594 41.4531V50.449C356.594 51.483 356.077 52 355.043 52H352.079ZM383.168 33.9049C383.168 28.2063 384.593 23.6682 387.442 20.2904C390.292 16.9127 394.37 15.2238 399.678 15.2238C404.09 15.2238 407.743 16.7748 410.638 19.8768C413.557 22.9559 415.016 27.8847 415.016 34.6631C415.016 35.6972 414.545 36.2142 413.603 36.2142H389.579C389.97 40.6489 391.165 43.7394 393.164 45.4858C395.163 47.2091 397.426 48.0708 399.954 48.0708C402.619 48.0708 404.664 47.6227 406.089 46.7266C407.513 45.8304 408.559 44.9458 409.225 44.0726C409.961 43.1075 410.673 42.9237 411.362 43.5211L413.396 45.279C413.924 45.7385 413.924 46.3704 413.396 47.1746C412.959 47.841 411.707 48.9095 409.639 50.3801C407.594 51.8506 404.366 52.5859 399.954 52.5859C394.209 52.5859 389.97 50.8971 387.235 47.5193C384.524 44.1415 383.168 39.6034 383.168 33.9049ZM389.441 31.7335H408.915C408.823 28.5165 407.996 25.7017 406.434 23.2891C404.871 20.8534 402.573 19.6356 399.54 19.6356C396.875 19.6356 394.611 20.5317 392.75 22.324C390.889 24.0933 389.786 27.2298 389.441 31.7335ZM421.565 35.3525C420.531 35.3525 420.013 34.9504 420.013 34.1461V31.7335C420.013 30.9292 420.531 30.5271 421.565 30.5271H438.04C439.074 30.5271 439.591 30.9292 439.591 31.7335V34.1461C439.591 34.9504 439.074 35.3525 438.04 35.3525H421.565ZM447.38 33.1466V4.47013C447.38 3.20634 447.955 2.57445 449.104 2.57445H452.275C453.423 2.57445 453.998 3.20634 453.998 4.47013V32.1126C453.998 38.5464 454.905 42.7514 456.721 44.7275C458.559 46.6806 461.546 47.6572 465.682 47.6572C469.818 47.6572 472.794 46.6806 474.609 44.7275C476.447 42.7514 477.366 38.5464 477.366 32.1126V4.47013C477.366 3.20634 477.941 2.57445 479.09 2.57445H482.261C483.41 2.57445 483.984 3.20634 483.984 4.47013V33.1466C483.984 40.4306 482.307 45.5662 478.952 48.5533C475.62 51.5404 471.197 53.034 465.682 53.034C460.167 53.034 455.733 51.5404 452.378 48.5533C449.046 45.5662 447.38 40.4306 447.38 33.1466ZM496.289 65.7868C495.255 65.7868 494.738 65.2698 494.738 64.2358V17.3608C494.738 16.3267 495.255 15.8097 496.289 15.8097H499.184C500.011 15.8097 500.459 16.3267 500.528 17.3608L500.735 20.1181H500.804C502.068 18.6016 503.492 17.4067 505.078 16.5335C506.663 15.6604 508.777 15.2238 511.42 15.2238C516.015 15.2238 519.508 17.108 521.898 20.8764C524.287 24.6218 525.482 28.9646 525.482 33.9049C525.482 38.8451 524.287 43.1994 521.898 46.9678C519.508 50.7132 516.015 52.5859 511.42 52.5859C508.777 52.5859 506.663 52.1494 505.078 51.2762C503.492 50.403 502.068 49.2082 500.804 47.6916H500.735C500.781 48.381 500.804 49.0818 500.804 49.7941V64.2358C500.804 65.2698 500.287 65.7868 499.253 65.7868H496.289ZM500.804 37.8686C500.804 41.3153 501.62 43.8888 503.251 45.5892C504.906 47.2665 506.974 48.1052 509.455 48.1052C512.948 48.1052 515.418 46.7955 516.866 44.176C518.336 41.5565 519.071 38.1328 519.071 33.9049C519.071 29.6769 518.336 26.2532 516.866 23.6337C515.418 21.0142 512.948 19.7045 509.455 19.7045C506.974 19.7045 504.906 20.5547 503.251 22.2551C501.62 23.9324 500.804 26.4945 500.804 29.9412V37.8686ZM555.331 52C554.136 52 553.826 51.2417 554.4 49.7252L571.565 4.67693C572.093 3.27528 572.851 2.57445 573.839 2.57445H578.665C579.653 2.57445 580.411 3.27528 580.94 4.67693L598.104 49.7252C598.678 51.2417 598.368 52 597.173 52H593.658C592.44 52 591.613 51.437 591.176 50.3111L586.868 38.9026H565.636L561.328 50.3111C560.891 51.437 560.064 52 558.846 52H555.331ZM567.808 33.25H584.696L579.423 19.4632C578.94 18.1765 578.458 16.7518 577.975 15.1893C577.516 13.6268 576.964 11.4095 576.321 8.53723H576.183C575.54 11.4095 574.977 13.6268 574.494 15.1893C574.035 16.7518 573.564 18.1765 573.081 19.4632L567.808 33.25ZM605.273 52C604.239 52 603.722 51.483 603.722 50.449V17.3608C603.722 16.3267 604.239 15.8097 605.273 15.8097H608.168C609.202 15.8097 609.719 16.3267 609.719 17.3608V21.4968H609.857C610.96 19.4288 612.258 17.8663 613.752 16.8093C615.246 15.7523 617.107 15.2238 619.336 15.2238C620.806 15.2238 621.84 15.3502 622.438 15.6029C622.966 15.8097 623.161 16.1544 623.024 16.6369L622.231 19.4632C622.116 19.8768 621.817 20.0377 621.335 19.9458C620.53 19.7849 619.772 19.7045 619.06 19.7045C616.371 19.7045 614.154 20.9223 612.408 23.358C610.661 25.7707 609.788 29.068 609.788 33.25V50.449C609.788 51.483 609.271 52 608.237 52H605.273ZM626.849 20.3594C625.815 20.3594 625.298 19.9573 625.298 19.153V17.0161C625.298 16.2119 625.815 15.8097 626.849 15.8097H630.917V12.7077C630.917 12.2482 631.031 11.8116 631.261 11.398L633.674 7.02068C634.11 6.21645 634.467 5.81434 634.742 5.81434H635.949C636.638 5.81434 636.983 6.21645 636.983 7.02068V15.8097H644.324C645.358 15.8097 645.875 16.2119 645.875 17.0161V19.153C645.875 19.9573 645.358 20.3594 644.324 20.3594H636.983V42.3148C636.983 44.7275 637.339 46.3015 638.051 47.0368C638.786 47.7491 639.66 48.1052 640.671 48.1052C641.452 48.1052 642.383 47.8755 643.462 47.4159C644.565 46.9563 645.324 46.5657 645.737 46.244C646.151 45.9223 646.473 46.0257 646.702 46.5542L647.84 49.2082C648.024 49.6677 647.886 50.0354 647.426 50.3111C646.53 50.8396 645.22 51.3566 643.497 51.8621C641.774 52.3447 640.05 52.5859 638.327 52.5859C635.937 52.5859 634.099 51.7243 632.812 50.0009C631.548 48.2776 630.917 45.8419 630.917 42.6939V20.3594H626.849ZM656.284 52C655.25 52 654.733 51.483 654.733 50.449V17.3608C654.733 16.3267 655.25 15.8097 656.284 15.8097H659.248C660.282 15.8097 660.799 16.3267 660.799 17.3608V50.449C660.799 51.483 660.282 52 659.248 52H656.284ZM656.284 9.26103C655.25 9.26103 654.733 8.74403 654.733 7.71002V4.74586C654.733 3.71186 655.25 3.19485 656.284 3.19485H659.248C660.282 3.19485 660.799 3.71186 660.799 4.74586V7.71002C660.799 8.74403 660.282 9.26103 659.248 9.26103H656.284ZM669.175 48.6222C668.462 47.9559 668.313 47.3355 668.727 46.761L670.278 44.5896C670.783 43.9003 671.53 43.9347 672.518 44.693C673.874 45.727 675.379 46.5542 677.033 47.1746C678.711 47.795 680.618 48.1052 682.755 48.1052C684.019 48.1052 685.144 47.9559 686.133 47.6572C687.121 47.3355 687.982 46.7495 688.718 45.8994C689.476 45.0492 689.855 43.9118 689.855 42.4871C689.855 41.6599 689.671 40.8787 689.303 40.1434C688.959 39.4081 688.407 38.8222 687.649 38.3856C686.914 37.926 686.19 37.5699 685.478 37.3171C684.306 36.8805 683.134 36.5244 681.962 36.2486C680.813 35.9499 679.297 35.5018 677.412 34.9044C676.149 34.5138 674.954 33.9623 673.828 33.25C672.702 32.5147 671.714 31.5267 670.864 30.2858C670.036 29.045 669.623 27.3332 669.623 25.1503C669.623 22.9214 670.301 21.0028 671.656 19.3943C673.012 17.7858 674.712 16.6944 676.758 16.1199C678.803 15.5225 680.79 15.2238 682.72 15.2238C685.57 15.2238 687.856 15.557 689.579 16.2233C691.326 16.8667 692.831 17.6365 694.094 18.5326C694.83 19.0611 694.933 19.67 694.405 20.3594L692.854 22.4274C692.371 23.0938 691.624 23.0708 690.613 22.3585C689.763 21.761 688.557 21.1981 686.994 20.6696C685.432 20.1411 684.064 19.8768 682.893 19.8768C681.445 19.8768 680.204 20.0377 679.17 20.3594C678.136 20.6811 677.297 21.2325 676.654 22.0138C676.011 22.795 675.689 23.7142 675.689 24.7711C675.689 25.5754 675.815 26.2992 676.068 26.9426C676.321 27.563 676.792 28.1374 677.481 28.6659C678.171 29.1944 679.136 29.6195 680.377 29.9412C682.307 30.4467 684.064 30.9063 685.65 31.3199C687.258 31.7335 688.706 32.239 689.993 32.8364C691.67 33.6176 692.957 34.4793 693.853 35.4214C694.772 36.3635 695.404 37.386 695.749 38.489C696.093 39.5689 696.266 40.7753 696.266 42.108C696.266 44.5666 695.53 46.6461 694.06 48.3465C692.612 50.0469 690.992 51.1843 689.2 51.7587C687.408 52.3102 685.248 52.5859 682.72 52.5859C679.297 52.5859 676.355 52.1034 673.897 51.1383C671.461 50.1503 669.887 49.3116 669.175 48.6222ZM701.367 20.3594C700.333 20.3594 699.816 19.9573 699.816 19.153V17.0161C699.816 16.2119 700.333 15.8097 701.367 15.8097H705.434V12.7077C705.434 12.2482 705.549 11.8116 705.779 11.398L708.191 7.02068C708.628 6.21645 708.984 5.81434 709.26 5.81434H710.466C711.155 5.81434 711.5 6.21645 711.5 7.02068V15.8097H718.842C719.876 15.8097 720.393 16.2119 720.393 17.0161V19.153C720.393 19.9573 719.876 20.3594 718.842 20.3594H711.5V42.3148C711.5 44.7275 711.856 46.3015 712.569 47.0368C713.304 47.7491 714.177 48.1052 715.188 48.1052C715.969 48.1052 716.9 47.8755 717.98 47.4159C719.083 46.9563 719.841 46.5657 720.255 46.244C720.668 45.9223 720.99 46.0257 721.22 46.5542L722.357 49.2082C722.541 49.6677 722.403 50.0354 721.944 50.3111C721.048 50.8396 719.738 51.3566 718.014 51.8621C716.291 52.3447 714.568 52.5859 712.844 52.5859C710.455 52.5859 708.616 51.7243 707.33 50.0009C706.066 48.2776 705.434 45.8419 705.434 42.6939V20.3594H701.367Z" fill="black"/>
</svg>
