<svg width="748" height="129" viewBox="0 0 748 129" fill="none" xmlns="http://www.w3.org/2000/svg">
<path d="M111.156 68.0276C111.156 50.8516 105.957 37.0935 95.5595 26.7534C85.162 16.3559 71.5476 11.1572 54.7162 11.1572C52.4184 11.1572 49.7185 11.3008 46.6165 11.588C43.5719 11.8178 41.1018 12.105 39.2061 12.4497C39.1487 13.8858 39.0912 15.9825 39.0338 18.7399C38.6317 34.0202 38.4306 45.4517 38.4306 53.0345C38.4306 59.3534 38.5742 68.3722 38.8614 80.091C39.0338 85.4334 39.1487 89.6556 39.2061 92.7576L39.7231 117.746C43.7443 119.182 47.6218 120.216 51.3557 120.848C55.0896 121.48 59.1395 121.796 63.5053 121.796C78.7282 121.796 90.4756 117.057 98.7477 107.578C107.02 98.0425 111.156 84.8589 111.156 68.0276ZM130.63 66.2181C130.63 84.6579 124.512 99.7084 112.276 111.37C100.098 123.031 83.8408 128.862 63.5053 128.862C59.2544 128.862 53.4524 128.574 46.0995 128C38.7466 127.426 33.3755 127.138 29.9862 127.138C26.7119 127.138 23.2077 127.224 19.4738 127.397C15.7399 127.512 11.6039 127.713 7.06572 128V124.295C7.35294 124.352 7.75506 124.41 8.27206 124.467C8.84651 124.467 9.62201 124.467 10.5986 124.467C15.6537 124.467 18.9568 122.658 20.5078 119.039C22.1163 115.362 22.9205 108.067 22.9205 97.1521V32.699C22.9205 22.1291 22.1737 15.3794 20.6801 12.4497C19.244 9.46254 15.8835 7.96897 10.5986 7.96897C9.85179 7.96897 9.30607 7.9977 8.9614 8.05514C8.61673 8.05514 8.27206 8.08386 7.92739 8.14131V4.52228C11.2017 4.75206 14.8208 4.95312 18.7845 5.12545C22.8056 5.29779 26.5395 5.38396 29.9862 5.38396C32.9159 5.38396 37.6264 5.24034 44.1176 4.95312C50.6089 4.60845 55.3194 4.43612 58.2491 4.43612C80.1356 4.43612 97.6563 10.037 110.811 21.2387C124.023 32.383 130.63 47.3761 130.63 66.2181ZM298.225 128C297.765 128 296.99 127.943 295.898 127.828C287.397 127.368 280.819 127.138 276.166 127.138C272.26 127.138 265.797 127.368 256.779 127.828C255.227 127.885 254.05 127.943 253.246 128V124.295C253.763 124.295 254.395 124.324 255.141 124.381C255.888 124.438 256.434 124.467 256.779 124.467C260.915 124.467 263.844 123.634 265.568 121.968C267.348 120.245 268.239 117.258 268.239 113.007C268.239 103.931 267.894 91.1778 267.205 74.7486C266.573 58.2619 265.74 41.6029 264.706 24.7716L263.844 27.4428L227.654 105.08C225.701 109.216 224.179 112.863 223.087 116.023C222.053 119.182 221.22 122.6 220.588 126.277H216.194C215.792 124.381 215.16 122.284 214.298 119.986C213.436 117.689 211.426 113.007 208.266 105.941L173.799 29.1661L171.214 23.9099L170.267 38.0414C169.462 49.8176 168.83 62.0246 168.371 74.6625C167.911 87.3003 167.682 99.1914 167.682 110.336C167.682 115.85 168.601 119.584 170.439 121.537C172.335 123.491 175.81 124.467 180.865 124.467C181.497 124.467 182.387 124.41 183.536 124.295V128C182.904 127.943 181.957 127.885 180.693 127.828C172.593 127.368 166.762 127.138 163.201 127.138C159.926 127.138 154.785 127.339 147.777 127.741C145.996 127.856 144.675 127.943 143.813 128V124.295C145.02 124.41 145.91 124.467 146.484 124.467C149.299 124.467 151.511 124.065 153.119 123.261C154.785 122.457 156.106 121.107 157.083 119.211C158.117 117.085 159.18 107.492 160.271 90.4311C160.443 88.2482 160.558 86.6397 160.616 85.6057L162.339 59.2385C162.512 56.9982 163 50.392 163.804 39.42C164.608 28.3906 165.01 21.727 165.01 19.4292C165.01 15.4655 164.091 12.5646 162.253 10.7263C160.415 8.88809 157.514 7.96897 153.55 7.96897C152.976 7.96897 152.372 8.02642 151.741 8.14131V4.43612C152.258 4.49356 153.033 4.55101 154.067 4.60845C161.19 5.12545 166.016 5.38396 168.543 5.38396C170.324 5.38396 172.593 5.29779 175.35 5.12545C178.165 4.95312 181.009 4.75206 183.881 4.52228C183.766 5.21162 183.68 5.75735 183.622 6.15946C183.565 6.50413 183.536 6.82008 183.536 7.1073C183.536 10.2668 185.892 16.9304 190.602 27.0981C191.349 28.764 191.923 30.0278 192.325 30.8895L223.259 98.0138L250.574 39.7647C256.951 26.2077 260.742 17.8495 261.949 14.69C263.212 11.5306 263.844 9.00298 263.844 7.1073C263.844 6.82008 263.816 6.50413 263.758 6.15946C263.701 5.75735 263.614 5.21162 263.5 4.52228C264.706 4.57973 266.372 4.69462 268.497 4.86695C272.978 5.21162 276.425 5.38396 278.837 5.38396C280.79 5.38396 283.375 5.29779 286.592 5.12545C289.867 4.89567 292.567 4.69462 294.692 4.52228V8.14131C294.118 8.02642 293.543 7.96897 292.969 7.96897C288.201 7.96897 284.869 8.85937 282.973 10.6402C281.135 12.3635 280.216 15.3794 280.216 19.6877C280.216 21.3536 280.331 25.346 280.561 31.665C280.848 37.9839 281.164 44.2167 281.509 50.3633L283.232 82.0728C283.921 93.9065 284.438 102.351 284.783 107.406C285.185 112.404 285.558 115.764 285.903 117.488C286.42 120.073 287.397 121.882 288.833 122.916C290.326 123.95 292.567 124.467 295.554 124.467L298.225 124.295V128Z" fill="#F7F7F7"/>
<path d="M311.753 118.467C311.753 114.377 313.66 111.378 317.474 109.471C321.312 107.564 327.033 106.449 334.639 106.128V103.784C334.639 101.624 334.145 99.7629 333.157 98.2004C332.192 96.6149 330.262 95.8222 327.366 95.8222C325.528 95.8222 324.058 96.006 322.955 96.3737C321.852 96.7183 320.841 97.1894 319.922 97.7868C319.025 98.3612 318.164 99.108 317.337 100.027C316.716 100.716 316.13 100.751 315.579 100.131L313.786 98.0625C313.281 97.4881 313.453 96.7987 314.303 95.9945C315.521 94.8456 316.705 93.9839 317.854 93.4095C319.002 92.835 320.427 92.3525 322.127 91.9619C323.851 91.5483 325.597 91.3415 327.366 91.3415C332.169 91.3415 335.593 92.5823 337.638 95.0639C339.683 97.5225 340.705 100.9 340.705 105.197V126.567C340.705 127.601 340.188 128.118 339.154 128.118H336.052C335.156 128.118 334.708 127.601 334.708 126.567V124.878H334.639C332.824 126.302 331.043 127.302 329.297 127.876C327.573 128.428 325.643 128.704 323.506 128.704C319.738 128.704 316.831 127.807 314.786 126.015C312.764 124.2 311.753 121.684 311.753 118.467ZM318.026 118.605C318.026 120.029 318.325 121.178 318.922 122.051C319.519 122.902 320.347 123.453 321.404 123.706C322.461 123.936 323.564 124.051 324.712 124.051C326.482 124.051 328.159 123.878 329.745 123.534C331.33 123.189 332.962 122.281 334.639 120.811V110.643C329.997 110.988 326.689 111.413 324.712 111.918C322.736 112.401 321.128 113.251 319.887 114.469C318.646 115.664 318.026 117.042 318.026 118.605ZM352.079 128.118C351.045 128.118 350.528 127.601 350.528 126.567V93.4784C350.528 92.4444 351.045 91.9274 352.079 91.9274H354.974C356.008 91.9274 356.525 92.4444 356.525 93.4784V97.6145H356.663C357.766 95.5464 359.065 93.9839 360.558 92.927C362.052 91.87 363.913 91.3415 366.142 91.3415C367.612 91.3415 368.646 91.4679 369.244 91.7206C369.772 91.9274 369.968 92.2721 369.83 92.7546L369.037 95.5809C368.922 95.9945 368.623 96.1554 368.141 96.0634C367.337 95.9026 366.578 95.8222 365.866 95.8222C363.178 95.8222 360.96 97.04 359.214 99.4757C357.468 101.888 356.594 105.186 356.594 109.368V126.567C356.594 127.601 356.077 128.118 355.043 128.118H352.079ZM376.964 128.118C375.93 128.118 375.413 127.601 375.413 126.567V93.4784C375.413 92.4444 375.93 91.9274 376.964 91.9274H379.928C380.962 91.9274 381.479 92.4444 381.479 93.4784V126.567C381.479 127.601 380.962 128.118 379.928 128.118H376.964ZM376.964 85.3787C375.93 85.3787 375.413 84.8617 375.413 83.8277V80.8635C375.413 79.8295 375.93 79.3125 376.964 79.3125H379.928C380.962 79.3125 381.479 79.8295 381.479 80.8635V83.8277C381.479 84.8617 380.962 85.3787 379.928 85.3787H376.964ZM389.303 118.467C389.303 114.377 391.211 111.378 395.025 109.471C398.862 107.564 404.584 106.449 412.19 106.128V103.784C412.19 101.624 411.695 99.7629 410.707 98.2004C409.742 96.6149 407.812 95.8222 404.917 95.8222C403.079 95.8222 401.608 96.006 400.505 96.3737C399.402 96.7183 398.391 97.1894 397.472 97.7868C396.576 98.3612 395.714 99.108 394.887 100.027C394.267 100.716 393.681 100.751 393.129 100.131L391.337 98.0625C390.832 97.4881 391.004 96.7987 391.854 95.9945C393.072 94.8456 394.255 93.9839 395.404 93.4095C396.553 92.835 397.978 92.3525 399.678 91.9619C401.401 91.5483 403.148 91.3415 404.917 91.3415C409.719 91.3415 413.143 92.5823 415.188 95.0639C417.233 97.5225 418.256 100.9 418.256 105.197V126.567C418.256 127.601 417.739 128.118 416.705 128.118H413.603C412.707 128.118 412.258 127.601 412.258 126.567V124.878H412.19C410.374 126.302 408.593 127.302 406.847 127.876C405.124 128.428 403.194 128.704 401.057 128.704C397.288 128.704 394.382 127.807 392.337 126.015C390.315 124.2 389.303 121.684 389.303 118.467ZM395.576 118.605C395.576 120.029 395.875 121.178 396.473 122.051C397.07 122.902 397.897 123.453 398.954 123.706C400.011 123.936 401.114 124.051 402.263 124.051C404.032 124.051 405.71 123.878 407.295 123.534C408.881 123.189 410.512 122.281 412.19 120.811V110.643C407.548 110.988 404.239 111.413 402.263 111.918C400.287 112.401 398.678 113.251 397.438 114.469C396.197 115.664 395.576 117.042 395.576 118.605ZM454.274 128.118C453.125 128.118 452.55 127.486 452.55 126.222V80.5878C452.55 79.324 453.125 78.6921 454.274 78.6921H466.992C476.735 78.6921 483.502 80.8521 487.293 85.1719C491.107 89.4688 493.014 95.5235 493.014 103.336C493.014 111.148 491.107 117.238 487.293 121.603C483.502 125.946 476.735 128.118 466.992 128.118H454.274ZM459.168 122.465H466.682C474.264 122.465 479.366 120.857 481.985 117.64C484.627 114.423 485.949 109.655 485.949 103.336C485.949 97.017 484.627 92.2606 481.985 89.0667C479.366 85.8727 474.264 84.2758 466.682 84.2758H459.168V122.465ZM499.115 110.023C499.115 104.623 500.54 100.165 503.389 96.6494C506.261 93.1108 510.455 91.3415 515.969 91.3415C521.484 91.3415 525.666 93.1108 528.515 96.6494C531.388 100.165 532.824 104.623 532.824 110.023C532.824 115.422 531.388 119.892 528.515 123.43C525.666 126.946 521.484 128.704 515.969 128.704C510.455 128.704 506.261 126.946 503.389 123.43C500.54 119.892 499.115 115.422 499.115 110.023ZM505.526 110.023C505.526 114.848 506.479 118.421 508.387 120.742C510.294 123.063 512.821 124.223 515.969 124.223C519.117 124.223 521.645 123.063 523.552 120.742C525.459 118.421 526.413 114.848 526.413 110.023C526.413 105.197 525.459 101.624 523.552 99.3033C521.645 96.9826 519.117 95.8222 515.969 95.8222C512.821 95.8222 510.294 96.9826 508.387 99.3033C506.479 101.624 505.526 105.197 505.526 110.023ZM542.199 128.118C541.165 128.118 540.648 127.601 540.648 126.567V93.4784C540.648 92.4444 541.165 91.9274 542.199 91.9274H545.094C546.128 91.9274 546.645 92.4444 546.645 93.4784V96.2358H546.783C548.276 94.5814 549.885 93.3521 551.608 92.5478C553.332 91.7436 555.48 91.3415 558.053 91.3415C562.235 91.3415 565.234 92.5248 567.049 94.8916C568.888 97.2353 569.807 100.452 569.807 104.542V126.567C569.807 127.601 569.29 128.118 568.256 128.118H565.292C564.258 128.118 563.741 127.601 563.741 126.567V106.197C563.741 101.693 562.994 98.8438 561.5 97.6489C560.007 96.4311 558.111 95.8222 555.813 95.8222C552.826 95.8222 550.563 96.7183 549.023 98.5106C547.484 100.28 546.714 103.324 546.714 107.644V126.567C546.714 127.601 546.197 128.118 545.163 128.118H542.199ZM577.769 96.4771C576.735 96.4771 576.218 96.0749 576.218 95.2707V93.1338C576.218 92.3295 576.735 91.9274 577.769 91.9274H581.836V88.8254C581.836 88.3658 581.951 87.9293 582.18 87.5157L584.593 83.1384C585.03 82.3341 585.386 81.932 585.661 81.932H586.868C587.557 81.932 587.902 82.3341 587.902 83.1384V91.9274H595.243C596.277 91.9274 596.794 92.3295 596.794 93.1338V95.2707C596.794 96.0749 596.277 96.4771 595.243 96.4771H587.902V118.432C587.902 120.845 588.258 122.419 588.97 123.154C589.706 123.867 590.579 124.223 591.59 124.223C592.371 124.223 593.302 123.993 594.382 123.534C595.485 123.074 596.243 122.683 596.656 122.362C597.07 122.04 597.392 122.143 597.621 122.672L598.759 125.326C598.943 125.785 598.805 126.153 598.345 126.429C597.449 126.957 596.139 127.474 594.416 127.98C592.693 128.462 590.969 128.704 589.246 128.704C586.856 128.704 585.018 127.842 583.731 126.119C582.468 124.395 581.836 121.96 581.836 118.812V96.4771H577.769ZM604.239 124.74C603.527 124.074 603.377 123.453 603.791 122.879L605.342 120.707C605.848 120.018 606.594 120.052 607.582 120.811C608.938 121.845 610.443 122.672 612.098 123.292C613.775 123.913 615.682 124.223 617.819 124.223C619.083 124.223 620.209 124.074 621.197 123.775C622.185 123.453 623.047 122.867 623.782 122.017C624.54 121.167 624.919 120.029 624.919 118.605C624.919 117.778 624.735 116.996 624.368 116.261C624.023 115.526 623.472 114.94 622.713 114.503C621.978 114.044 621.254 113.688 620.542 113.435C619.37 112.998 618.198 112.642 617.026 112.366C615.877 112.068 614.361 111.62 612.477 111.022C611.213 110.631 610.018 110.08 608.892 109.368C607.766 108.632 606.778 107.644 605.928 106.404C605.101 105.163 604.687 103.451 604.687 101.268C604.687 99.0391 605.365 97.1204 606.721 95.512C608.076 93.9035 609.777 92.8121 611.822 92.2376C613.867 91.6402 615.854 91.3415 617.785 91.3415C620.634 91.3415 622.92 91.6747 624.644 92.341C626.39 92.9844 627.895 93.7542 629.159 94.6503C629.894 95.1788 629.997 95.7877 629.469 96.4771L627.918 98.5451C627.435 99.2114 626.689 99.1884 625.678 98.4761C624.827 97.8787 623.621 97.3157 622.059 96.7873C620.496 96.2588 619.129 95.9945 617.957 95.9945C616.509 95.9945 615.269 96.1554 614.235 96.4771C613.201 96.7987 612.362 97.3502 611.718 98.1315C611.075 98.9127 610.753 99.8318 610.753 100.889C610.753 101.693 610.88 102.417 611.133 103.06C611.385 103.681 611.856 104.255 612.546 104.784C613.235 105.312 614.2 105.737 615.441 106.059C617.371 106.564 619.129 107.024 620.714 107.438C622.323 107.851 623.77 108.357 625.057 108.954C626.735 109.735 628.021 110.597 628.917 111.539C629.837 112.481 630.468 113.504 630.813 114.607C631.158 115.687 631.33 116.893 631.33 118.226C631.33 120.684 630.595 122.764 629.124 124.464C627.677 126.165 626.057 127.302 624.264 127.876C622.472 128.428 620.312 128.704 617.785 128.704C614.361 128.704 611.42 128.221 608.961 127.256C606.525 126.268 604.951 125.429 604.239 124.74ZM636.224 110.023C636.224 104.623 637.649 100.165 640.498 96.6494C643.371 93.1108 647.564 91.3415 653.079 91.3415C658.593 91.3415 662.775 93.1108 665.625 96.6494C668.497 100.165 669.933 104.623 669.933 110.023C669.933 115.422 668.497 119.892 665.625 123.43C662.775 126.946 658.593 128.704 653.079 128.704C647.564 128.704 643.371 126.946 640.498 123.43C637.649 119.892 636.224 115.422 636.224 110.023ZM642.635 110.023C642.635 114.848 643.589 118.421 645.496 120.742C647.403 123.063 649.931 124.223 653.079 124.223C656.227 124.223 658.754 123.063 660.661 120.742C662.569 118.421 663.522 114.848 663.522 110.023C663.522 105.197 662.569 101.624 660.661 99.3033C658.754 96.9826 656.227 95.8222 653.079 95.8222C649.931 95.8222 647.403 96.9826 645.496 99.3033C643.589 101.624 642.635 105.197 642.635 110.023ZM675 93.6163C674.609 92.4904 674.919 91.9274 675.93 91.9274H679.687C680.423 91.9274 680.94 92.3755 681.238 93.2716L688.545 116.02C689.143 117.881 689.545 119.168 689.752 119.88C689.981 120.569 690.188 121.431 690.372 122.465H690.51C690.694 121.431 690.889 120.569 691.096 119.88C691.326 119.168 691.739 117.881 692.337 116.02L699.644 93.2716C699.942 92.3755 700.459 91.9274 701.195 91.9274H704.951C705.962 91.9274 706.273 92.4904 705.882 93.6163L694.577 126.015C694.094 127.417 693.474 128.118 692.716 128.118H688.166C687.408 128.118 686.787 127.417 686.305 126.015L675 93.6163ZM709.777 118.467C709.777 114.377 711.684 111.378 715.498 109.471C719.336 107.564 725.057 106.449 732.663 106.128V103.784C732.663 101.624 732.169 99.7629 731.181 98.2004C730.216 96.6149 728.286 95.8222 725.39 95.8222C723.552 95.8222 722.082 96.006 720.979 96.3737C719.876 96.7183 718.865 97.1894 717.945 97.7868C717.049 98.3612 716.188 99.108 715.36 100.027C714.74 100.716 714.154 100.751 713.603 100.131L711.81 98.0625C711.305 97.4881 711.477 96.7987 712.327 95.9945C713.545 94.8456 714.729 93.9839 715.877 93.4095C717.026 92.835 718.451 92.3525 720.151 91.9619C721.875 91.5483 723.621 91.3415 725.39 91.3415C730.193 91.3415 733.616 92.5823 735.661 95.0639C737.707 97.5225 738.729 100.9 738.729 105.197V126.567C738.729 127.601 738.212 128.118 737.178 128.118H734.076C733.18 128.118 732.732 127.601 732.732 126.567V124.878H732.663C730.848 126.302 729.067 127.302 727.32 127.876C725.597 128.428 723.667 128.704 721.53 128.704C717.762 128.704 714.855 127.807 712.81 126.015C710.788 124.2 709.777 121.684 709.777 118.467ZM716.05 118.605C716.05 120.029 716.349 121.178 716.946 122.051C717.543 122.902 718.371 123.453 719.428 123.706C720.485 123.936 721.587 124.051 722.736 124.051C724.506 124.051 726.183 123.878 727.769 123.534C729.354 123.189 730.985 122.281 732.663 120.811V110.643C728.021 110.988 724.712 111.413 722.736 111.918C720.76 112.401 719.152 113.251 717.911 114.469C716.67 115.664 716.05 117.042 716.05 118.605Z" fill="#F7F7F7"/>
<path d="M311.753 44.3493C311.753 40.2592 313.66 37.2606 317.474 35.3534C321.312 33.4462 327.033 32.3318 334.639 32.0101V29.6664C334.639 27.5064 334.145 25.6452 333.157 24.0827C332.192 22.4972 330.262 21.7045 327.366 21.7045C325.528 21.7045 324.058 21.8883 322.955 22.256C321.852 22.6006 320.841 23.0717 319.922 23.6691C319.025 24.2436 318.164 24.9903 317.337 25.9095C316.716 26.5988 316.13 26.6333 315.579 26.0129L313.786 23.9449C313.281 23.3704 313.453 22.6811 314.303 21.8768C315.521 20.7279 316.705 19.8663 317.854 19.2918C319.002 18.7174 320.427 18.2348 322.127 17.8442C323.851 17.4306 325.597 17.2238 327.366 17.2238C332.169 17.2238 335.593 18.4646 337.638 20.9462C339.683 23.4049 340.705 26.7826 340.705 31.0795V52.449C340.705 53.483 340.188 54 339.154 54H336.052C335.156 54 334.708 53.483 334.708 52.449V50.7601H334.639C332.824 52.1847 331.043 53.1843 329.297 53.7587C327.573 54.3102 325.643 54.5859 323.506 54.5859C319.738 54.5859 316.831 53.6898 314.786 51.8975C312.764 50.0823 311.753 47.5662 311.753 44.3493ZM318.026 44.4871C318.026 45.9118 318.325 47.0607 318.922 47.9338C319.519 48.784 320.347 49.3355 321.404 49.5882C322.461 49.818 323.564 49.9329 324.712 49.9329C326.482 49.9329 328.159 49.7606 329.745 49.4159C331.33 49.0712 332.962 48.1636 334.639 46.693V36.5253C329.997 36.8699 326.689 37.295 324.712 37.8006C322.736 38.2831 321.128 39.1333 319.887 40.3511C318.646 41.546 318.026 42.9246 318.026 44.4871ZM352.079 54C351.045 54 350.528 53.483 350.528 52.449V4.67785C350.528 3.64384 351.045 3.12684 352.079 3.12684H355.043C356.077 3.12684 356.594 3.64384 356.594 4.67785V33.3543C356.594 34.0437 356.571 34.733 356.525 35.4223H356.594L370.553 18.7059C371.059 18.1085 371.668 17.8097 372.38 17.8097H375.517C377.263 17.8097 377.562 18.4876 376.413 19.8433L365.59 32.7339L377.964 51.9665C378.837 53.3222 378.538 54 377.068 54H373.69C372.932 54 372.277 53.5749 371.725 52.7247L361.799 37.2491L356.594 43.4531V52.449C356.594 53.483 356.077 54 355.043 54H352.079ZM383.168 35.9049C383.168 30.2063 384.593 25.6682 387.442 22.2904C390.292 18.9127 394.37 17.2238 399.678 17.2238C404.09 17.2238 407.743 18.7748 410.638 21.8768C413.557 24.9559 415.016 29.8847 415.016 36.6631C415.016 37.6972 414.545 38.2142 413.603 38.2142H389.579C389.97 42.6489 391.165 45.7394 393.164 47.4858C395.163 49.2091 397.426 50.0708 399.954 50.0708C402.619 50.0708 404.664 49.6227 406.089 48.7266C407.513 47.8304 408.559 46.9458 409.225 46.0726C409.961 45.1075 410.673 44.9237 411.362 45.5211L413.396 47.279C413.924 47.7385 413.924 48.3704 413.396 49.1746C412.959 49.841 411.707 50.9095 409.639 52.3801C407.594 53.8506 404.366 54.5859 399.954 54.5859C394.209 54.5859 389.97 52.8971 387.235 49.5193C384.524 46.1415 383.168 41.6034 383.168 35.9049ZM389.441 33.7335H408.915C408.823 30.5165 407.996 27.7017 406.434 25.2891C404.871 22.8534 402.573 21.6356 399.54 21.6356C396.875 21.6356 394.611 22.5317 392.75 24.324C390.889 26.0933 389.786 29.2298 389.441 33.7335ZM421.565 37.3525C420.531 37.3525 420.013 36.9504 420.013 36.1461V33.7335C420.013 32.9292 420.531 32.5271 421.565 32.5271H438.04C439.074 32.5271 439.591 32.9292 439.591 33.7335V36.1461C439.591 36.9504 439.074 37.3525 438.04 37.3525H421.565ZM447.38 35.1466V6.47013C447.38 5.20634 447.955 4.57445 449.104 4.57445H452.275C453.423 4.57445 453.998 5.20634 453.998 6.47013V34.1126C453.998 40.5464 454.905 44.7514 456.721 46.7275C458.559 48.6806 461.546 49.6572 465.682 49.6572C469.818 49.6572 472.794 48.6806 474.609 46.7275C476.447 44.7514 477.366 40.5464 477.366 34.1126V6.47013C477.366 5.20634 477.941 4.57445 479.09 4.57445H482.261C483.41 4.57445 483.984 5.20634 483.984 6.47013V35.1466C483.984 42.4306 482.307 47.5662 478.952 50.5533C475.62 53.5404 471.197 55.034 465.682 55.034C460.167 55.034 455.733 53.5404 452.378 50.5533C449.046 47.5662 447.38 42.4306 447.38 35.1466ZM496.289 67.7868C495.255 67.7868 494.738 67.2698 494.738 66.2358V19.3608C494.738 18.3267 495.255 17.8097 496.289 17.8097H499.184C500.011 17.8097 500.459 18.3267 500.528 19.3608L500.735 22.1181H500.804C502.068 20.6016 503.492 19.4067 505.078 18.5335C506.663 17.6604 508.777 17.2238 511.42 17.2238C516.015 17.2238 519.508 19.108 521.898 22.8764C524.287 26.6218 525.482 30.9646 525.482 35.9049C525.482 40.8451 524.287 45.1994 521.898 48.9678C519.508 52.7132 516.015 54.5859 511.42 54.5859C508.777 54.5859 506.663 54.1494 505.078 53.2762C503.492 52.403 502.068 51.2082 500.804 49.6916H500.735C500.781 50.381 500.804 51.0818 500.804 51.7941V66.2358C500.804 67.2698 500.287 67.7868 499.253 67.7868H496.289ZM500.804 39.8686C500.804 43.3153 501.62 45.8888 503.251 47.5892C504.906 49.2665 506.974 50.1052 509.455 50.1052C512.948 50.1052 515.418 48.7955 516.866 46.176C518.336 43.5565 519.071 40.1328 519.071 35.9049C519.071 31.6769 518.336 28.2532 516.866 25.6337C515.418 23.0142 512.948 21.7045 509.455 21.7045C506.974 21.7045 504.906 22.5547 503.251 24.2551C501.62 25.9324 500.804 28.4945 500.804 31.9412V39.8686ZM555.331 54C554.136 54 553.826 53.2417 554.4 51.7252L571.565 6.67693C572.093 5.27528 572.851 4.57445 573.839 4.57445H578.665C579.653 4.57445 580.411 5.27528 580.94 6.67693L598.104 51.7252C598.678 53.2417 598.368 54 597.173 54H593.658C592.44 54 591.613 53.437 591.176 52.3111L586.868 40.9026H565.636L561.328 52.3111C560.891 53.437 560.064 54 558.846 54H555.331ZM567.808 35.25H584.696L579.423 21.4632C578.94 20.1765 578.458 18.7518 577.975 17.1893C577.516 15.6268 576.964 13.4095 576.321 10.5372H576.183C575.54 13.4095 574.977 15.6268 574.494 17.1893C574.035 18.7518 573.564 20.1765 573.081 21.4632L567.808 35.25ZM605.273 54C604.239 54 603.722 53.483 603.722 52.449V19.3608C603.722 18.3267 604.239 17.8097 605.273 17.8097H608.168C609.202 17.8097 609.719 18.3267 609.719 19.3608V23.4968H609.857C610.96 21.4288 612.258 19.8663 613.752 18.8093C615.246 17.7523 617.107 17.2238 619.336 17.2238C620.806 17.2238 621.84 17.3502 622.438 17.6029C622.966 17.8097 623.161 18.1544 623.024 18.6369L622.231 21.4632C622.116 21.8768 621.817 22.0377 621.335 21.9458C620.53 21.7849 619.772 21.7045 619.06 21.7045C616.371 21.7045 614.154 22.9223 612.408 25.358C610.661 27.7707 609.788 31.068 609.788 35.25V52.449C609.788 53.483 609.271 54 608.237 54H605.273ZM626.849 22.3594C625.815 22.3594 625.298 21.9573 625.298 21.153V19.0161C625.298 18.2119 625.815 17.8097 626.849 17.8097H630.917V14.7077C630.917 14.2482 631.031 13.8116 631.261 13.398L633.674 9.02068C634.11 8.21645 634.467 7.81434 634.742 7.81434H635.949C636.638 7.81434 636.983 8.21645 636.983 9.02068V17.8097H644.324C645.358 17.8097 645.875 18.2119 645.875 19.0161V21.153C645.875 21.9573 645.358 22.3594 644.324 22.3594H636.983V44.3148C636.983 46.7275 637.339 48.3015 638.051 49.0368C638.786 49.7491 639.66 50.1052 640.671 50.1052C641.452 50.1052 642.383 49.8755 643.462 49.4159C644.565 48.9563 645.324 48.5657 645.737 48.244C646.151 47.9223 646.473 48.0257 646.702 48.5542L647.84 51.2082C648.024 51.6677 647.886 52.0354 647.426 52.3111C646.53 52.8396 645.22 53.3566 643.497 53.8621C641.774 54.3447 640.05 54.5859 638.327 54.5859C635.937 54.5859 634.099 53.7243 632.812 52.0009C631.548 50.2776 630.917 47.8419 630.917 44.6939V22.3594H626.849ZM656.284 54C655.25 54 654.733 53.483 654.733 52.449V19.3608C654.733 18.3267 655.25 17.8097 656.284 17.8097H659.248C660.282 17.8097 660.799 18.3267 660.799 19.3608V52.449C660.799 53.483 660.282 54 659.248 54H656.284ZM656.284 11.261C655.25 11.261 654.733 10.744 654.733 9.71002V6.74586C654.733 5.71186 655.25 5.19485 656.284 5.19485H659.248C660.282 5.19485 660.799 5.71186 660.799 6.74586V9.71002C660.799 10.744 660.282 11.261 659.248 11.261H656.284ZM669.175 50.6222C668.462 49.9559 668.313 49.3355 668.727 48.761L670.278 46.5896C670.783 45.9003 671.53 45.9347 672.518 46.693C673.874 47.727 675.379 48.5542 677.033 49.1746C678.711 49.795 680.618 50.1052 682.755 50.1052C684.019 50.1052 685.144 49.9559 686.133 49.6572C687.121 49.3355 687.982 48.7495 688.718 47.8994C689.476 47.0492 689.855 45.9118 689.855 44.4871C689.855 43.6599 689.671 42.8787 689.303 42.1434C688.959 41.4081 688.407 40.8222 687.649 40.3856C686.914 39.926 686.19 39.5699 685.478 39.3171C684.306 38.8805 683.134 38.5244 681.962 38.2486C680.813 37.9499 679.297 37.5018 677.412 36.9044C676.149 36.5138 674.954 35.9623 673.828 35.25C672.702 34.5147 671.714 33.5267 670.864 32.2858C670.036 31.045 669.623 29.3332 669.623 27.1503C669.623 24.9214 670.301 23.0028 671.656 21.3943C673.012 19.7858 674.712 18.6944 676.758 18.1199C678.803 17.5225 680.79 17.2238 682.72 17.2238C685.57 17.2238 687.856 17.557 689.579 18.2233C691.326 18.8667 692.831 19.6365 694.094 20.5326C694.83 21.0611 694.933 21.67 694.405 22.3594L692.854 24.4274C692.371 25.0938 691.624 25.0708 690.613 24.3585C689.763 23.761 688.557 23.1981 686.994 22.6696C685.432 22.1411 684.064 21.8768 682.893 21.8768C681.445 21.8768 680.204 22.0377 679.17 22.3594C678.136 22.6811 677.297 23.2325 676.654 24.0138C676.011 24.795 675.689 25.7142 675.689 26.7711C675.689 27.5754 675.815 28.2992 676.068 28.9426C676.321 29.563 676.792 30.1374 677.481 30.6659C678.171 31.1944 679.136 31.6195 680.377 31.9412C682.307 32.4467 684.064 32.9063 685.65 33.3199C687.258 33.7335 688.706 34.239 689.993 34.8364C691.67 35.6176 692.957 36.4793 693.853 37.4214C694.772 38.3635 695.404 39.386 695.749 40.489C696.093 41.5689 696.266 42.7753 696.266 44.108C696.266 46.5666 695.53 48.6461 694.06 50.3465C692.612 52.0469 690.992 53.1843 689.2 53.7587C687.408 54.3102 685.248 54.5859 682.72 54.5859C679.297 54.5859 676.355 54.1034 673.897 53.1383C671.461 52.1503 669.887 51.3116 669.175 50.6222ZM701.367 22.3594C700.333 22.3594 699.816 21.9573 699.816 21.153V19.0161C699.816 18.2119 700.333 17.8097 701.367 17.8097H705.434V14.7077C705.434 14.2482 705.549 13.8116 705.779 13.398L708.191 9.02068C708.628 8.21645 708.984 7.81434 709.26 7.81434H710.466C711.155 7.81434 711.5 8.21645 711.5 9.02068V17.8097H718.842C719.876 17.8097 720.393 18.2119 720.393 19.0161V21.153C720.393 21.9573 719.876 22.3594 718.842 22.3594H711.5V44.3148C711.5 46.7275 711.856 48.3015 712.569 49.0368C713.304 49.7491 714.177 50.1052 715.188 50.1052C715.969 50.1052 716.9 49.8755 717.98 49.4159C719.083 48.9563 719.841 48.5657 720.255 48.244C720.668 47.9223 720.99 48.0257 721.22 48.5542L722.357 51.2082C722.541 51.6677 722.403 52.0354 721.944 52.3111C721.048 52.8396 719.738 53.3566 718.014 53.8621C716.291 54.3447 714.568 54.5859 712.844 54.5859C710.455 54.5859 708.616 53.7243 707.33 52.0009C706.066 50.2776 705.434 47.8419 705.434 44.6939V22.3594H701.367Z" fill="#F7F7F7"/>
</svg>
