<svg width="4257" height="734" viewBox="0 0 4257 734" fill="none" xmlns="http://www.w3.org/2000/svg">
<path d="M632.353 384.824C632.353 287.111 602.778 208.843 543.627 150.02C484.477 90.8692 407.026 61.2941 311.275 61.2941C298.203 61.2941 282.843 62.1111 265.196 63.7451C247.876 65.0522 233.824 66.6862 223.039 68.647C222.712 76.817 222.386 88.7451 222.059 104.431C219.771 191.359 218.627 256.392 218.627 299.529C218.627 335.477 219.444 386.784 221.078 453.451C222.059 483.843 222.712 507.863 223.039 525.51L225.98 667.667C248.856 675.837 270.915 681.719 292.157 685.314C313.399 688.908 336.438 690.706 361.275 690.706C447.876 690.706 514.706 663.745 561.765 609.824C608.824 555.575 632.353 480.575 632.353 384.824ZM743.137 374.529C743.137 479.431 708.333 565.052 638.726 631.392C569.444 697.732 476.961 730.902 361.275 730.902C337.092 730.902 304.085 729.268 262.255 726C220.425 722.732 189.869 721.098 170.588 721.098C151.961 721.098 132.026 721.588 110.784 722.569C89.5425 723.222 66.0131 724.366 40.1961 726V704.922C41.8301 705.248 44.1176 705.575 47.0588 705.902C50.3268 705.902 54.7386 705.902 60.2941 705.902C89.0523 705.902 107.843 695.608 116.667 675.02C125.817 654.105 130.392 612.601 130.392 550.51V183.843C130.392 123.712 126.144 85.3137 117.647 68.647C109.477 51.6536 90.3595 43.1568 60.2941 43.1568C56.0458 43.1568 52.9412 43.3202 50.9804 43.647C49.0196 43.647 47.0588 43.8104 45.098 44.1372V23.549C63.7255 24.8562 84.3137 26 106.863 26.9803C129.739 27.9607 150.98 28.4509 170.588 28.4509C187.255 28.4509 214.052 27.6339 250.98 26C287.909 24.0392 314.706 23.0588 331.373 23.0588C455.882 23.0588 555.556 54.9215 630.392 118.647C705.556 182.046 743.137 267.34 743.137 374.529ZM1696.57 726C1693.95 726 1689.54 725.673 1683.33 725.02C1634.97 722.405 1597.55 721.098 1571.08 721.098C1548.86 721.098 1512.09 722.405 1460.78 725.02C1451.96 725.346 1445.26 725.673 1440.69 726V704.922C1443.63 704.922 1447.22 705.085 1451.47 705.412C1455.72 705.739 1458.82 705.902 1460.78 705.902C1484.31 705.902 1500.98 701.163 1510.78 691.686C1520.92 681.882 1525.98 664.889 1525.98 640.706C1525.98 589.072 1524.02 516.523 1520.1 423.059C1516.5 329.268 1511.76 234.497 1505.88 138.745L1500.98 153.941L1295.1 595.608C1283.99 619.137 1275.33 639.889 1269.12 657.863C1263.24 675.837 1258.5 695.281 1254.9 716.196H1229.9C1227.61 705.412 1224.02 693.484 1219.12 680.412C1214.22 667.34 1202.78 640.706 1184.8 600.51L988.726 163.745L974.02 133.843L968.628 214.235C964.052 281.229 960.458 350.673 957.843 422.569C955.229 494.464 953.922 562.111 953.922 625.51C953.922 656.882 959.15 678.124 969.608 689.235C980.392 700.346 1000.16 705.902 1028.92 705.902C1032.52 705.902 1037.58 705.575 1044.12 704.922V726C1040.52 725.673 1035.13 725.346 1027.94 725.02C981.863 722.405 948.693 721.098 928.431 721.098C909.804 721.098 880.556 722.242 840.686 724.529C830.556 725.183 823.039 725.673 818.137 726V704.922C825 705.575 830.065 705.902 833.333 705.902C849.346 705.902 861.928 703.614 871.079 699.039C880.556 694.464 888.072 686.784 893.628 676C899.51 663.908 905.556 609.333 911.765 512.274C912.745 499.856 913.399 490.706 913.726 484.824L923.529 334.824C924.51 322.078 927.288 284.497 931.863 222.078C936.438 159.333 938.726 121.425 938.726 108.353C938.726 85.8039 933.497 69.3006 923.039 58.8431C912.582 48.3856 896.079 43.1568 873.529 43.1568C870.262 43.1568 866.83 43.4836 863.235 44.1372V23.0588C866.177 23.3856 870.588 23.7124 876.471 24.0392C916.994 26.9803 944.445 28.4509 958.824 28.4509C968.954 28.4509 981.863 27.9607 997.549 26.9803C1013.56 26 1029.74 24.8562 1046.08 23.549C1045.42 27.4705 1044.93 30.5751 1044.61 32.8627C1044.28 34.8235 1044.12 36.6209 1044.12 38.2549C1044.12 56.2287 1057.52 94.1372 1084.31 151.98C1088.56 161.457 1091.83 168.647 1094.12 173.549L1270.1 555.412L1425.49 224.039C1461.76 146.915 1483.33 99.366 1490.2 81.3921C1497.39 63.4183 1500.98 49.0392 1500.98 38.2549C1500.98 36.6209 1500.82 34.8235 1500.49 32.8627C1500.16 30.5751 1499.67 27.4705 1499.02 23.549C1505.88 23.8758 1515.36 24.5294 1527.45 25.5098C1552.94 27.4705 1572.55 28.4509 1586.27 28.4509C1597.39 28.4509 1612.09 27.9607 1630.39 26.9803C1649.02 25.6732 1664.38 24.5294 1676.47 23.549V44.1372C1673.2 43.4836 1669.93 43.1568 1666.67 43.1568C1639.54 43.1568 1620.59 48.2222 1609.8 58.3529C1599.35 68.1568 1594.12 85.3137 1594.12 109.823C1594.12 119.301 1594.77 142.013 1596.08 177.961C1597.71 213.908 1599.51 249.366 1601.47 284.333L1611.27 464.725C1615.2 532.046 1618.14 580.085 1620.1 608.843C1622.39 637.275 1624.51 656.392 1626.47 666.196C1629.41 680.902 1634.97 691.196 1643.14 697.078C1651.63 702.961 1664.38 705.902 1681.37 705.902L1696.57 704.922V726Z" fill="black"/>
<path d="M1773.53 675.078C1773.53 651.81 1784.38 634.751 1806.08 623.902C1827.91 613.052 1860.46 606.712 1903.73 604.882V591.549C1903.73 579.261 1900.92 568.673 1895.29 559.784C1889.8 550.765 1878.82 546.255 1862.35 546.255C1851.9 546.255 1843.53 547.3 1837.26 549.392C1830.98 551.353 1825.23 554.033 1820 557.431C1814.9 560.699 1810 564.948 1805.29 570.176C1801.77 574.098 1798.43 574.294 1795.29 570.765L1785.1 559C1782.22 555.732 1783.2 551.81 1788.04 547.235C1794.97 540.699 1801.7 535.797 1808.24 532.529C1814.77 529.261 1822.88 526.516 1832.55 524.294C1842.35 521.941 1852.29 520.765 1862.35 520.765C1889.67 520.765 1909.15 527.823 1920.78 541.941C1932.42 555.928 1938.24 575.144 1938.24 599.588V721.157C1938.24 727.039 1935.29 729.98 1929.41 729.98H1911.77C1906.67 729.98 1904.12 727.039 1904.12 721.157V711.549H1903.73C1893.4 719.653 1883.27 725.34 1873.33 728.608C1863.53 731.745 1852.55 733.314 1840.39 733.314C1818.95 733.314 1802.42 728.216 1790.78 718.019C1779.28 707.693 1773.53 693.379 1773.53 675.078ZM1809.22 675.863C1809.22 683.967 1810.92 690.503 1814.31 695.47C1817.71 700.307 1822.42 703.444 1828.43 704.882C1834.44 706.189 1840.72 706.843 1847.26 706.843C1857.32 706.843 1866.86 705.863 1875.88 703.902C1884.9 701.941 1894.18 696.778 1903.73 688.412V630.568C1877.32 632.529 1858.5 634.948 1847.26 637.823C1836.01 640.568 1826.86 645.405 1819.8 652.333C1812.75 659.131 1809.22 666.974 1809.22 675.863ZM2002.94 729.98C1997.06 729.98 1994.12 727.039 1994.12 721.157V532.921C1994.12 527.039 1997.06 524.098 2002.94 524.098H2019.41C2025.29 524.098 2028.24 527.039 2028.24 532.921V556.451H2029.02C2035.29 544.686 2042.68 535.797 2051.18 529.784C2059.67 523.771 2070.26 520.765 2082.94 520.765C2091.31 520.765 2097.19 521.483 2100.59 522.921C2103.6 524.098 2104.71 526.059 2103.92 528.804L2099.41 544.882C2098.76 547.235 2097.06 548.15 2094.31 547.627C2089.74 546.712 2085.43 546.255 2081.37 546.255C2066.08 546.255 2053.46 553.183 2043.53 567.039C2033.6 580.765 2028.63 599.523 2028.63 623.314V721.157C2028.63 727.039 2025.69 729.98 2019.8 729.98H2002.94ZM2144.51 729.98C2138.63 729.98 2135.69 727.039 2135.69 721.157V532.921C2135.69 527.039 2138.63 524.098 2144.51 524.098H2161.37C2167.26 524.098 2170.2 527.039 2170.2 532.921V721.157C2170.2 727.039 2167.26 729.98 2161.37 729.98H2144.51ZM2144.51 486.843C2138.63 486.843 2135.69 483.902 2135.69 478.019V461.157C2135.69 455.274 2138.63 452.333 2144.51 452.333H2161.37C2167.26 452.333 2170.2 455.274 2170.2 461.157V478.019C2170.2 483.902 2167.26 486.843 2161.37 486.843H2144.51ZM2214.71 675.078C2214.71 651.81 2225.56 634.751 2247.26 623.902C2269.09 613.052 2301.63 606.712 2344.9 604.882V591.549C2344.9 579.261 2342.09 568.673 2336.47 559.784C2330.98 550.765 2320 546.255 2303.53 546.255C2293.07 546.255 2284.71 547.3 2278.43 549.392C2272.16 551.353 2266.41 554.033 2261.18 557.431C2256.08 560.699 2251.18 564.948 2246.47 570.176C2242.94 574.098 2239.61 574.294 2236.47 570.765L2226.28 559C2223.4 555.732 2224.38 551.81 2229.22 547.235C2236.14 540.699 2242.88 535.797 2249.41 532.529C2255.95 529.261 2264.05 526.516 2273.73 524.294C2283.53 521.941 2293.46 520.765 2303.53 520.765C2330.85 520.765 2350.33 527.823 2361.96 541.941C2373.6 555.928 2379.41 575.144 2379.41 599.588V721.157C2379.41 727.039 2376.47 729.98 2370.59 729.98H2352.94C2347.84 729.98 2345.29 727.039 2345.29 721.157V711.549H2344.9C2334.58 719.653 2324.44 725.34 2314.51 728.608C2304.71 731.745 2293.73 733.314 2281.57 733.314C2260.13 733.314 2243.6 728.216 2231.96 718.019C2220.46 707.693 2214.71 693.379 2214.71 675.078ZM2250.39 675.863C2250.39 683.967 2252.09 690.503 2255.49 695.47C2258.89 700.307 2263.6 703.444 2269.61 704.882C2275.62 706.189 2281.9 706.843 2288.43 706.843C2298.5 706.843 2308.04 705.863 2317.06 703.902C2326.08 701.941 2335.36 696.778 2344.9 688.412V630.568C2318.5 632.529 2299.67 634.948 2288.43 637.823C2277.19 640.568 2268.04 645.405 2260.98 652.333C2253.92 659.131 2250.39 666.974 2250.39 675.863ZM2584.31 729.98C2577.78 729.98 2574.51 726.385 2574.51 719.196V459.588C2574.51 452.399 2577.78 448.804 2584.31 448.804H2656.67C2712.09 448.804 2750.59 461.091 2772.16 485.666C2793.86 510.111 2804.71 544.555 2804.71 589C2804.71 633.444 2793.86 668.085 2772.16 692.921C2750.59 717.627 2712.09 729.98 2656.67 729.98H2584.31ZM2612.16 697.823H2654.9C2698.04 697.823 2727.06 688.673 2741.96 670.372C2756.99 652.072 2764.51 624.948 2764.51 589C2764.51 553.052 2756.99 525.993 2741.96 507.823C2727.06 489.653 2698.04 480.568 2654.9 480.568H2612.16V697.823ZM2839.41 627.039C2839.41 596.32 2847.52 570.961 2863.73 550.961C2880.07 530.83 2903.92 520.765 2935.29 520.765C2966.67 520.765 2990.46 530.83 3006.67 550.961C3023.01 570.961 3031.18 596.32 3031.18 627.039C3031.18 657.758 3023.01 683.183 3006.67 703.314C2990.46 723.314 2966.67 733.314 2935.29 733.314C2903.92 733.314 2880.07 723.314 2863.73 703.314C2847.52 683.183 2839.41 657.758 2839.41 627.039ZM2875.88 627.039C2875.88 654.49 2881.31 674.817 2892.16 688.019C2903.01 701.222 2917.39 707.823 2935.29 707.823C2953.2 707.823 2967.58 701.222 2978.43 688.019C2989.28 674.817 2994.71 654.49 2994.71 627.039C2994.71 599.588 2989.28 579.261 2978.43 566.059C2967.58 552.856 2953.2 546.255 2935.29 546.255C2917.39 546.255 2903.01 552.856 2892.16 566.059C2881.31 579.261 2875.88 599.588 2875.88 627.039ZM3084.51 729.98C3078.63 729.98 3075.69 727.039 3075.69 721.157V532.921C3075.69 527.039 3078.63 524.098 3084.51 524.098H3100.98C3106.86 524.098 3109.8 527.039 3109.8 532.921V548.608H3110.59C3119.09 539.196 3128.24 532.202 3138.04 527.627C3147.84 523.052 3160.07 520.765 3174.71 520.765C3198.5 520.765 3215.56 527.497 3225.88 540.961C3236.34 554.294 3241.57 572.595 3241.57 595.863V721.157C3241.57 727.039 3238.63 729.98 3232.75 729.98H3215.88C3210 729.98 3207.06 727.039 3207.06 721.157V605.274C3207.06 579.653 3202.81 563.444 3194.31 556.647C3185.82 549.719 3175.03 546.255 3161.96 546.255C3144.97 546.255 3132.09 551.353 3123.33 561.549C3114.58 571.614 3110.2 588.934 3110.2 613.51V721.157C3110.2 727.039 3107.26 729.98 3101.37 729.98H3084.51ZM3286.86 549.98C3280.98 549.98 3278.04 547.693 3278.04 543.117V530.961C3278.04 526.385 3280.98 524.098 3286.86 524.098H3310V506.451C3310 503.836 3310.65 501.353 3311.96 499L3325.69 474.098C3328.17 469.523 3330.2 467.235 3331.77 467.235H3338.63C3342.55 467.235 3344.51 469.523 3344.51 474.098V524.098H3386.28C3392.16 524.098 3395.1 526.385 3395.1 530.961V543.117C3395.1 547.693 3392.16 549.98 3386.28 549.98H3344.51V674.882C3344.51 688.608 3346.54 697.562 3350.59 701.745C3354.77 705.797 3359.74 707.823 3365.49 707.823C3369.94 707.823 3375.23 706.516 3381.37 703.902C3387.65 701.287 3391.96 699.065 3394.31 697.235C3396.67 695.405 3398.5 695.993 3399.8 699L3406.28 714.098C3407.32 716.712 3406.54 718.804 3403.92 720.372C3398.82 723.379 3391.37 726.32 3381.57 729.196C3371.77 731.941 3361.96 733.314 3352.16 733.314C3338.56 733.314 3328.11 728.412 3320.78 718.608C3313.6 708.804 3310 694.948 3310 677.039V549.98H3286.86ZM3437.45 710.765C3433.4 706.974 3432.55 703.444 3434.9 700.176L3443.73 687.823C3446.6 683.902 3450.85 684.098 3456.47 688.412C3464.18 694.294 3472.75 699 3482.16 702.529C3491.7 706.059 3502.55 707.823 3514.71 707.823C3521.9 707.823 3528.3 706.974 3533.92 705.274C3539.54 703.444 3544.44 700.111 3548.63 695.274C3552.94 690.438 3555.1 683.967 3555.1 675.863C3555.1 671.157 3554.05 666.712 3551.96 662.529C3550 658.346 3546.86 655.013 3542.55 652.529C3538.37 649.915 3534.25 647.889 3530.2 646.451C3523.53 643.967 3516.86 641.941 3510.2 640.372C3503.66 638.673 3495.03 636.124 3484.31 632.725C3477.12 630.503 3470.33 627.366 3463.92 623.314C3457.52 619.131 3451.9 613.51 3447.06 606.451C3442.35 599.392 3440 589.653 3440 577.235C3440 564.555 3443.86 553.64 3451.57 544.49C3459.28 535.34 3468.95 529.131 3480.59 525.863C3492.22 522.464 3503.53 520.765 3514.51 520.765C3530.72 520.765 3543.73 522.66 3553.53 526.451C3563.46 530.111 3572.03 534.49 3579.22 539.588C3583.4 542.595 3583.99 546.059 3580.98 549.98L3572.16 561.745C3569.41 565.536 3565.16 565.405 3559.41 561.353C3554.58 557.954 3547.71 554.751 3538.82 551.745C3529.94 548.738 3522.16 547.235 3515.49 547.235C3507.26 547.235 3500.2 548.15 3494.31 549.98C3488.43 551.81 3483.66 554.948 3480 559.392C3476.34 563.836 3474.51 569.065 3474.51 575.078C3474.51 579.653 3475.23 583.771 3476.67 587.431C3478.11 590.961 3480.78 594.229 3484.71 597.235C3488.63 600.242 3494.12 602.66 3501.18 604.49C3512.16 607.366 3522.16 609.98 3531.18 612.333C3540.33 614.686 3548.56 617.562 3555.88 620.961C3565.43 625.405 3572.75 630.307 3577.84 635.666C3583.07 641.026 3586.67 646.843 3588.63 653.117C3590.59 659.261 3591.57 666.124 3591.57 673.706C3591.57 687.693 3587.39 699.523 3579.02 709.196C3570.78 718.869 3561.57 725.34 3551.37 728.608C3541.18 731.745 3528.89 733.314 3514.51 733.314C3495.03 733.314 3478.3 730.568 3464.31 725.078C3450.46 719.457 3441.5 714.686 3437.45 710.765ZM3619.41 627.039C3619.41 596.32 3627.52 570.961 3643.73 550.961C3660.07 530.83 3683.92 520.765 3715.29 520.765C3746.67 520.765 3770.46 530.83 3786.67 550.961C3803.01 570.961 3811.18 596.32 3811.18 627.039C3811.18 657.758 3803.01 683.183 3786.67 703.314C3770.46 723.314 3746.67 733.314 3715.29 733.314C3683.92 733.314 3660.07 723.314 3643.73 703.314C3627.52 683.183 3619.41 657.758 3619.41 627.039ZM3655.88 627.039C3655.88 654.49 3661.31 674.817 3672.16 688.019C3683.01 701.222 3697.39 707.823 3715.29 707.823C3733.2 707.823 3747.58 701.222 3758.43 688.019C3769.28 674.817 3774.71 654.49 3774.71 627.039C3774.71 599.588 3769.28 579.261 3758.43 566.059C3747.58 552.856 3733.2 546.255 3715.29 546.255C3697.39 546.255 3683.01 552.856 3672.16 566.059C3661.31 579.261 3655.88 599.588 3655.88 627.039ZM3840 533.706C3837.78 527.3 3839.54 524.098 3845.29 524.098H3866.67C3870.85 524.098 3873.79 526.647 3875.49 531.745L3917.06 661.157C3920.46 671.745 3922.75 679.065 3923.92 683.117C3925.23 687.039 3926.41 691.941 3927.45 697.823H3928.24C3929.28 691.941 3930.39 687.039 3931.57 683.117C3932.88 679.065 3935.23 671.745 3938.63 661.157L3980.2 531.745C3981.9 526.647 3984.84 524.098 3989.02 524.098H4010.39C4016.14 524.098 4017.91 527.3 4015.69 533.706L3951.37 718.019C3948.63 725.993 3945.1 729.98 3940.78 729.98H3914.9C3910.59 729.98 3907.06 725.993 3904.31 718.019L3840 533.706ZM4037.84 675.078C4037.84 651.81 4048.69 634.751 4070.39 623.902C4092.22 613.052 4124.77 606.712 4168.04 604.882V591.549C4168.04 579.261 4165.23 568.673 4159.61 559.784C4154.12 550.765 4143.14 546.255 4126.67 546.255C4116.21 546.255 4107.84 547.3 4101.57 549.392C4095.29 551.353 4089.54 554.033 4084.31 557.431C4079.22 560.699 4074.31 564.948 4069.61 570.176C4066.08 574.098 4062.75 574.294 4059.61 570.765L4049.41 559C4046.54 555.732 4047.52 551.81 4052.35 547.235C4059.28 540.699 4066.01 535.797 4072.55 532.529C4079.09 529.261 4087.19 526.516 4096.86 524.294C4106.67 521.941 4116.6 520.765 4126.67 520.765C4153.99 520.765 4173.46 527.823 4185.1 541.941C4196.73 555.928 4202.55 575.144 4202.55 599.588V721.157C4202.55 727.039 4199.61 729.98 4193.73 729.98H4176.08C4170.98 729.98 4168.43 727.039 4168.43 721.157V711.549H4168.04C4157.71 719.653 4147.58 725.34 4137.65 728.608C4127.84 731.745 4116.86 733.314 4104.71 733.314C4083.27 733.314 4066.73 728.216 4055.1 718.019C4043.6 707.693 4037.84 693.379 4037.84 675.078ZM4073.53 675.863C4073.53 683.967 4075.23 690.503 4078.63 695.47C4082.03 700.307 4086.73 703.444 4092.75 704.882C4098.76 706.189 4105.03 706.843 4111.57 706.843C4121.63 706.843 4131.18 705.863 4140.2 703.902C4149.22 701.941 4158.5 696.778 4168.04 688.412V630.568C4141.63 632.529 4122.81 634.948 4111.57 637.823C4100.33 640.568 4091.18 645.405 4084.12 652.333C4077.06 659.131 4073.53 666.974 4073.53 675.863Z" fill="black"/>
<path d="M1773.53 253.431C1773.53 230.163 1784.38 213.104 1806.08 202.255C1827.91 191.405 1860.46 185.065 1903.73 183.235V169.902C1903.73 157.614 1900.92 147.026 1895.29 138.137C1889.8 129.118 1878.82 124.608 1862.35 124.608C1851.9 124.608 1843.53 125.654 1837.26 127.745C1830.98 129.706 1825.23 132.386 1820 135.784C1814.9 139.052 1810 143.301 1805.29 148.529C1801.77 152.451 1798.43 152.647 1795.29 149.118L1785.1 137.353C1782.22 134.085 1783.2 130.163 1788.04 125.588C1794.97 119.052 1801.7 114.15 1808.24 110.882C1814.77 107.614 1822.88 104.869 1832.55 102.647C1842.35 100.294 1852.29 99.1176 1862.35 99.1176C1889.67 99.1176 1909.15 106.176 1920.78 120.294C1932.42 134.281 1938.24 153.497 1938.24 177.941V299.51C1938.24 305.392 1935.29 308.333 1929.41 308.333H1911.77C1906.67 308.333 1904.12 305.392 1904.12 299.51V289.902H1903.73C1893.4 298.006 1883.27 303.693 1873.33 306.961C1863.53 310.098 1852.55 311.667 1840.39 311.667C1818.95 311.667 1802.42 306.569 1790.78 296.372C1779.28 286.046 1773.53 271.732 1773.53 253.431ZM1809.22 254.216C1809.22 262.32 1810.92 268.856 1814.31 273.823C1817.71 278.66 1822.42 281.797 1828.43 283.235C1834.44 284.542 1840.72 285.196 1847.26 285.196C1857.32 285.196 1866.86 284.216 1875.88 282.255C1884.9 280.294 1894.18 275.131 1903.73 266.765V208.921C1877.32 210.882 1858.5 213.301 1847.26 216.176C1836.01 218.921 1826.86 223.758 1819.8 230.686C1812.75 237.484 1809.22 245.327 1809.22 254.216ZM2002.94 308.333C1997.06 308.333 1994.12 305.392 1994.12 299.51V27.745C1994.12 21.8627 1997.06 18.9215 2002.94 18.9215H2019.8C2025.69 18.9215 2028.63 21.8627 2028.63 27.745V190.882C2028.63 194.804 2028.5 198.725 2028.24 202.647H2028.63L2108.04 107.549C2110.92 104.15 2114.38 102.451 2118.43 102.451H2136.28C2146.21 102.451 2147.91 106.307 2141.37 114.02L2079.8 187.353L2150.2 296.765C2155.16 304.477 2153.46 308.333 2145.1 308.333H2125.88C2121.57 308.333 2117.84 305.915 2114.71 301.078L2058.24 213.039L2028.63 248.333V299.51C2028.63 305.392 2025.69 308.333 2019.8 308.333H2002.94ZM2179.8 205.392C2179.8 172.974 2187.91 147.157 2204.12 127.941C2220.33 108.725 2243.53 99.1176 2273.73 99.1176C2298.82 99.1176 2319.61 107.941 2336.08 125.588C2352.68 143.104 2360.98 171.144 2360.98 209.706C2360.98 215.588 2358.3 218.529 2352.94 218.529H2216.28C2218.5 243.758 2225.29 261.34 2236.67 271.274C2248.04 281.078 2260.92 285.98 2275.29 285.98C2290.46 285.98 2302.09 283.431 2310.2 278.333C2318.3 273.235 2324.25 268.203 2328.04 263.235C2332.22 257.745 2336.28 256.699 2340.2 260.098L2351.77 270.098C2354.77 272.712 2354.77 276.307 2351.77 280.882C2349.28 284.673 2342.16 290.752 2330.39 299.118C2318.76 307.484 2300.39 311.667 2275.29 311.667C2242.61 311.667 2218.5 302.059 2202.94 282.843C2187.52 263.627 2179.8 237.81 2179.8 205.392ZM2215.49 193.039H2326.28C2325.75 174.738 2321.05 158.725 2312.16 145C2303.27 131.144 2290.2 124.216 2272.94 124.216C2257.78 124.216 2244.9 129.314 2234.31 139.51C2223.73 149.575 2217.45 167.418 2215.49 193.039ZM2398.24 213.627C2392.35 213.627 2389.41 211.34 2389.41 206.765V193.039C2389.41 188.464 2392.35 186.176 2398.24 186.176H2491.96C2497.84 186.176 2500.78 188.464 2500.78 193.039V206.765C2500.78 211.34 2497.84 213.627 2491.96 213.627H2398.24ZM2545.1 201.078V37.9411C2545.1 30.7515 2548.37 27.1568 2554.9 27.1568H2572.94C2579.48 27.1568 2582.75 30.7515 2582.75 37.9411V195.196C2582.75 231.797 2587.91 255.719 2598.24 266.961C2608.69 278.072 2625.69 283.627 2649.22 283.627C2672.75 283.627 2689.67 278.072 2700 266.961C2710.46 255.719 2715.69 231.797 2715.69 195.196V37.9411C2715.69 30.7515 2718.95 27.1568 2725.49 27.1568H2743.53C2750.07 27.1568 2753.33 30.7515 2753.33 37.9411V201.078C2753.33 242.516 2743.79 271.732 2724.71 288.725C2705.75 305.719 2680.59 314.216 2649.22 314.216C2617.84 314.216 2592.61 305.719 2573.53 288.725C2554.58 271.732 2545.1 242.516 2545.1 201.078ZM2823.33 386.765C2817.45 386.765 2814.51 383.823 2814.51 377.941V111.274C2814.51 105.392 2817.45 102.451 2823.33 102.451H2839.8C2844.51 102.451 2847.06 105.392 2847.45 111.274L2848.63 126.961H2849.02C2856.21 118.333 2864.31 111.536 2873.33 106.569C2882.35 101.601 2894.38 99.1176 2909.41 99.1176C2935.56 99.1176 2955.43 109.837 2969.02 131.274C2982.61 152.582 2989.41 177.287 2989.41 205.392C2989.41 233.497 2982.61 258.268 2969.02 279.706C2955.43 301.013 2935.56 311.667 2909.41 311.667C2894.38 311.667 2882.35 309.183 2873.33 304.216C2864.31 299.248 2856.21 292.451 2849.02 283.823H2848.63C2848.89 287.745 2849.02 291.732 2849.02 295.784V377.941C2849.02 383.823 2846.08 386.765 2840.2 386.765H2823.33ZM2849.02 227.941C2849.02 247.549 2853.66 262.189 2862.94 271.863C2872.35 281.405 2884.12 286.176 2898.24 286.176C2918.11 286.176 2932.16 278.725 2940.39 263.823C2948.76 248.921 2952.94 229.444 2952.94 205.392C2952.94 181.34 2948.76 161.863 2940.39 146.961C2932.16 132.059 2918.11 124.608 2898.24 124.608C2884.12 124.608 2872.35 129.444 2862.94 139.118C2853.66 148.66 2849.02 163.235 2849.02 182.843V227.941ZM3159.22 308.333C3152.42 308.333 3150.65 304.02 3153.92 295.392L3251.57 39.1176C3254.58 31.1437 3258.89 27.1568 3264.51 27.1568H3291.96C3297.58 27.1568 3301.9 31.1437 3304.9 39.1176L3402.55 295.392C3405.82 304.02 3404.05 308.333 3397.26 308.333H3377.26C3370.33 308.333 3365.62 305.131 3363.14 298.725L3338.63 233.823H3217.84L3193.33 298.725C3190.85 305.131 3186.14 308.333 3179.22 308.333H3159.22ZM3230.2 201.667H3326.28L3296.28 123.235C3293.53 115.915 3290.78 107.81 3288.04 98.9215C3285.43 90.0326 3282.29 77.4182 3278.63 61.0783H3277.84C3274.18 77.4182 3270.98 90.0326 3268.24 98.9215C3265.62 107.81 3262.94 115.915 3260.2 123.235L3230.2 201.667ZM3443.33 308.333C3437.45 308.333 3434.51 305.392 3434.51 299.51V111.274C3434.51 105.392 3437.45 102.451 3443.33 102.451H3459.8C3465.69 102.451 3468.63 105.392 3468.63 111.274V134.804H3469.41C3475.69 123.039 3483.07 114.15 3491.57 108.137C3500.07 102.124 3510.65 99.1176 3523.33 99.1176C3531.7 99.1176 3537.58 99.8365 3540.98 101.274C3543.99 102.451 3545.1 104.412 3544.31 107.157L3539.8 123.235C3539.15 125.588 3537.45 126.503 3534.71 125.98C3530.13 125.065 3525.82 124.608 3521.77 124.608C3506.47 124.608 3493.86 131.536 3483.92 145.392C3473.99 159.118 3469.02 177.876 3469.02 201.667V299.51C3469.02 305.392 3466.08 308.333 3460.2 308.333H3443.33ZM3566.08 128.333C3560.2 128.333 3557.26 126.046 3557.26 121.471V109.314C3557.26 104.738 3560.2 102.451 3566.08 102.451H3589.22V84.8038C3589.22 82.1895 3589.87 79.7058 3591.18 77.3529L3604.9 52.4509C3607.39 47.8757 3609.41 45.5881 3610.98 45.5881H3617.84C3621.77 45.5881 3623.73 47.8757 3623.73 52.4509V102.451H3665.49C3671.37 102.451 3674.31 104.738 3674.31 109.314V121.471C3674.31 126.046 3671.37 128.333 3665.49 128.333H3623.73V253.235C3623.73 266.961 3625.75 275.915 3629.8 280.098C3633.99 284.15 3638.95 286.176 3644.71 286.176C3649.15 286.176 3654.44 284.869 3660.59 282.255C3666.86 279.64 3671.18 277.418 3673.53 275.588C3675.88 273.758 3677.71 274.346 3679.02 277.353L3685.49 292.451C3686.54 295.065 3685.75 297.157 3683.14 298.725C3678.04 301.732 3670.59 304.673 3660.78 307.549C3650.98 310.294 3641.18 311.667 3631.37 311.667C3617.78 311.667 3607.32 306.765 3600 296.961C3592.81 287.157 3589.22 273.301 3589.22 255.392V128.333H3566.08ZM3733.53 308.333C3727.65 308.333 3724.71 305.392 3724.71 299.51V111.274C3724.71 105.392 3727.65 102.451 3733.53 102.451H3750.39C3756.28 102.451 3759.22 105.392 3759.22 111.274V299.51C3759.22 305.392 3756.28 308.333 3750.39 308.333H3733.53ZM3733.53 65.196C3727.65 65.196 3724.71 62.2548 3724.71 56.3725V39.5097C3724.71 33.6274 3727.65 30.6862 3733.53 30.6862H3750.39C3756.28 30.6862 3759.22 33.6274 3759.22 39.5097V56.3725C3759.22 62.2548 3756.28 65.196 3750.39 65.196H3733.53ZM3806.86 289.118C3802.81 285.327 3801.96 281.797 3804.31 278.529L3813.14 266.176C3816.01 262.255 3820.26 262.451 3825.88 266.765C3833.6 272.647 3842.16 277.353 3851.57 280.882C3861.11 284.412 3871.96 286.176 3884.12 286.176C3891.31 286.176 3897.71 285.327 3903.33 283.627C3908.95 281.797 3913.86 278.464 3918.04 273.627C3922.35 268.791 3924.51 262.32 3924.51 254.216C3924.51 249.51 3923.46 245.065 3921.37 240.882C3919.41 236.699 3916.28 233.366 3911.96 230.882C3907.78 228.268 3903.66 226.242 3899.61 224.804C3892.94 222.32 3886.28 220.294 3879.61 218.725C3873.07 217.026 3864.45 214.477 3853.73 211.078C3846.54 208.856 3839.74 205.719 3833.33 201.667C3826.93 197.484 3821.31 191.863 3816.47 184.804C3811.77 177.745 3809.41 168.006 3809.41 155.588C3809.41 142.908 3813.27 131.993 3820.98 122.843C3828.69 113.693 3838.37 107.484 3850 104.216C3861.63 100.817 3872.94 99.1176 3883.92 99.1176C3900.13 99.1176 3913.14 101.013 3922.94 104.804C3932.88 108.464 3941.44 112.843 3948.63 117.941C3952.81 120.948 3953.4 124.412 3950.39 128.333L3941.57 140.098C3938.82 143.889 3934.58 143.758 3928.82 139.706C3923.99 136.307 3917.12 133.104 3908.24 130.098C3899.35 127.091 3891.57 125.588 3884.9 125.588C3876.67 125.588 3869.61 126.503 3863.73 128.333C3857.84 130.163 3853.07 133.301 3849.41 137.745C3845.75 142.189 3843.92 147.418 3843.92 153.431C3843.92 158.006 3844.64 162.124 3846.08 165.784C3847.52 169.314 3850.2 172.582 3854.12 175.588C3858.04 178.595 3863.53 181.013 3870.59 182.843C3881.57 185.719 3891.57 188.333 3900.59 190.686C3909.74 193.039 3917.97 195.915 3925.29 199.314C3934.84 203.758 3942.16 208.66 3947.26 214.02C3952.48 219.379 3956.08 225.196 3958.04 231.471C3960 237.614 3960.98 244.477 3960.98 252.059C3960.98 266.046 3956.8 277.876 3948.43 287.549C3940.2 297.222 3930.98 303.693 3920.78 306.961C3910.59 310.098 3898.3 311.667 3883.92 311.667C3864.45 311.667 3847.71 308.921 3833.73 303.431C3819.87 297.81 3810.92 293.039 3806.86 289.118ZM3990 128.333C3984.12 128.333 3981.18 126.046 3981.18 121.471V109.314C3981.18 104.738 3984.12 102.451 3990 102.451H4013.14V84.8038C4013.14 82.1895 4013.79 79.7058 4015.1 77.3529L4028.82 52.4509C4031.31 47.8757 4033.33 45.5881 4034.9 45.5881H4041.77C4045.69 45.5881 4047.65 47.8757 4047.65 52.4509V102.451H4089.41C4095.29 102.451 4098.24 104.738 4098.24 109.314V121.471C4098.24 126.046 4095.29 128.333 4089.41 128.333H4047.65V253.235C4047.65 266.961 4049.67 275.915 4053.73 280.098C4057.91 284.15 4062.88 286.176 4068.63 286.176C4073.07 286.176 4078.37 284.869 4084.51 282.255C4090.78 279.64 4095.1 277.418 4097.45 275.588C4099.8 273.758 4101.63 274.346 4102.94 277.353L4109.41 292.451C4110.46 295.065 4109.67 297.157 4107.06 298.725C4101.96 301.732 4094.51 304.673 4084.71 307.549C4074.9 310.294 4065.1 311.667 4055.29 311.667C4041.7 311.667 4031.24 306.765 4023.92 296.961C4016.73 287.157 4013.14 273.301 4013.14 255.392V128.333H3990Z" fill="black"/>
</svg>
