<svg width="4257" height="716" viewBox="0 0 4257 716" fill="none" xmlns="http://www.w3.org/2000/svg">
<path d="M632.353 366.824C632.353 269.111 602.778 190.843 543.627 132.02C484.477 72.8692 407.026 43.2941 311.275 43.2941C298.203 43.2941 282.843 44.1111 265.196 45.7451C247.876 47.0522 233.824 48.6862 223.039 50.647C222.712 58.817 222.386 70.7451 222.059 86.4313C219.771 173.359 218.627 238.392 218.627 281.529C218.627 317.477 219.444 368.784 221.078 435.451C222.059 465.843 222.712 489.863 223.039 507.51L225.98 649.667C248.856 657.837 270.915 663.719 292.157 667.314C313.399 670.908 336.438 672.706 361.275 672.706C447.876 672.706 514.706 645.745 561.765 591.824C608.824 537.575 632.353 462.575 632.353 366.824ZM743.137 356.529C743.137 461.431 708.333 547.052 638.726 613.392C569.444 679.732 476.961 712.902 361.275 712.902C337.092 712.902 304.085 711.268 262.255 708C220.425 704.732 189.869 703.098 170.588 703.098C151.961 703.098 132.026 703.588 110.784 704.569C89.5425 705.222 66.0131 706.366 40.1961 708V686.922C41.8301 687.248 44.1176 687.575 47.0588 687.902C50.3268 687.902 54.7386 687.902 60.2941 687.902C89.0523 687.902 107.843 677.608 116.667 657.02C125.817 636.105 130.392 594.601 130.392 532.51V165.843C130.392 105.712 126.144 67.3137 117.647 50.647C109.477 33.6536 90.3595 25.1568 60.2941 25.1568C56.0458 25.1568 52.9412 25.3202 50.9804 25.647C49.0196 25.647 47.0588 25.8104 45.098 26.1372V5.54898C63.7255 6.85617 84.3137 7.99996 106.863 8.98035C129.739 9.96074 150.98 10.4509 170.588 10.4509C187.255 10.4509 214.052 9.63394 250.98 7.99996C287.909 6.03917 314.706 5.05878 331.373 5.05878C455.882 5.05878 555.556 36.9215 630.392 100.647C705.556 164.046 743.137 249.34 743.137 356.529ZM1696.57 708C1693.95 708 1689.54 707.673 1683.33 707.02C1634.97 704.405 1597.55 703.098 1571.08 703.098C1548.86 703.098 1512.09 704.405 1460.78 707.02C1451.96 707.346 1445.26 707.673 1440.69 708V686.922C1443.63 686.922 1447.22 687.085 1451.47 687.412C1455.72 687.739 1458.82 687.902 1460.78 687.902C1484.31 687.902 1500.98 683.163 1510.78 673.686C1520.92 663.882 1525.98 646.889 1525.98 622.706C1525.98 571.072 1524.02 498.523 1520.1 405.059C1516.5 311.268 1511.76 216.497 1505.88 120.745L1500.98 135.941L1295.1 577.608C1283.99 601.137 1275.33 621.889 1269.12 639.863C1263.24 657.837 1258.5 677.281 1254.9 698.196H1229.9C1227.61 687.412 1224.02 675.484 1219.12 662.412C1214.22 649.34 1202.78 622.706 1184.8 582.51L988.726 145.745L974.02 115.843L968.628 196.235C964.052 263.229 960.458 332.673 957.843 404.569C955.229 476.464 953.922 544.111 953.922 607.51C953.922 638.882 959.15 660.124 969.608 671.235C980.392 682.346 1000.16 687.902 1028.92 687.902C1032.52 687.902 1037.58 687.575 1044.12 686.922V708C1040.52 707.673 1035.13 707.346 1027.94 707.02C981.863 704.405 948.693 703.098 928.431 703.098C909.804 703.098 880.556 704.242 840.686 706.529C830.556 707.183 823.039 707.673 818.137 708V686.922C825 687.575 830.065 687.902 833.333 687.902C849.346 687.902 861.928 685.614 871.079 681.039C880.556 676.464 888.072 668.784 893.628 658C899.51 645.908 905.556 591.333 911.765 494.274C912.745 481.856 913.399 472.706 913.726 466.824L923.529 316.824C924.51 304.078 927.288 266.497 931.863 204.078C936.438 141.333 938.726 103.425 938.726 90.3529C938.726 67.8039 933.497 51.3006 923.039 40.8431C912.582 30.3856 896.079 25.1568 873.529 25.1568C870.262 25.1568 866.83 25.4836 863.235 26.1372V5.05878C866.177 5.38558 870.588 5.71237 876.471 6.03917C916.994 8.98035 944.445 10.4509 958.824 10.4509C968.954 10.4509 981.863 9.96074 997.549 8.98035C1013.56 7.99996 1029.74 6.85617 1046.08 5.54898C1045.42 9.47054 1044.93 12.5751 1044.61 14.8627C1044.28 16.8235 1044.12 18.6209 1044.12 20.2549C1044.12 38.2287 1057.52 76.1372 1084.31 133.98C1088.56 143.457 1091.83 150.647 1094.12 155.549L1270.1 537.412L1425.49 206.039C1461.76 128.915 1483.33 81.366 1490.2 63.3921C1497.39 45.4183 1500.98 31.0392 1500.98 20.2549C1500.98 18.6209 1500.82 16.8235 1500.49 14.8627C1500.16 12.5751 1499.67 9.47054 1499.02 5.54898C1505.88 5.87577 1515.36 6.52937 1527.45 7.50976C1552.94 9.47054 1572.55 10.4509 1586.27 10.4509C1597.39 10.4509 1612.09 9.96074 1630.39 8.98035C1649.02 7.67316 1664.38 6.52937 1676.47 5.54898V26.1372C1673.2 25.4836 1669.93 25.1568 1666.67 25.1568C1639.54 25.1568 1620.59 30.2222 1609.8 40.3529C1599.35 50.1568 1594.12 67.3137 1594.12 91.8235C1594.12 101.301 1594.77 124.013 1596.08 159.961C1597.71 195.908 1599.51 231.366 1601.47 266.333L1611.27 446.725C1615.2 514.046 1618.14 562.085 1620.1 590.843C1622.39 619.275 1624.51 638.392 1626.47 648.196C1629.41 662.902 1634.97 673.196 1643.14 679.078C1651.63 684.961 1664.38 687.902 1681.37 687.902L1696.57 686.922V708Z" fill="#F7F7F7"/>
<path d="M1773.53 657.078C1773.53 633.81 1784.38 616.752 1806.08 605.902C1827.91 595.052 1860.46 588.712 1903.73 586.882V573.549C1903.73 561.261 1900.92 550.673 1895.29 541.784C1889.8 532.765 1878.82 528.255 1862.35 528.255C1851.9 528.255 1843.53 529.301 1837.26 531.392C1830.98 533.353 1825.23 536.033 1820 539.431C1814.9 542.699 1810 546.948 1805.29 552.176C1801.77 556.098 1798.43 556.294 1795.29 552.765L1785.1 541C1782.22 537.732 1783.2 533.81 1788.04 529.235C1794.97 522.699 1801.7 517.797 1808.24 514.529C1814.77 511.261 1822.88 508.516 1832.55 506.294C1842.35 503.941 1852.29 502.765 1862.35 502.765C1889.67 502.765 1909.15 509.823 1920.78 523.941C1932.42 537.928 1938.24 557.144 1938.24 581.588V703.157C1938.24 709.039 1935.29 711.98 1929.41 711.98H1911.77C1906.67 711.98 1904.12 709.039 1904.12 703.157V693.549H1903.73C1893.4 701.654 1883.27 707.34 1873.33 710.608C1863.53 713.745 1852.55 715.314 1840.39 715.314C1818.95 715.314 1802.42 710.216 1790.78 700.02C1779.28 689.693 1773.53 675.379 1773.53 657.078ZM1809.22 657.863C1809.22 665.967 1810.92 672.503 1814.31 677.471C1817.71 682.307 1822.42 685.444 1828.43 686.882C1834.44 688.189 1840.72 688.843 1847.26 688.843C1857.32 688.843 1866.86 687.863 1875.88 685.902C1884.9 683.941 1894.18 678.778 1903.73 670.412V612.569C1877.32 614.529 1858.5 616.948 1847.26 619.823C1836.01 622.569 1826.86 627.405 1819.8 634.333C1812.75 641.131 1809.22 648.974 1809.22 657.863ZM2002.94 711.98C1997.06 711.98 1994.12 709.039 1994.12 703.157V514.922C1994.12 509.039 1997.06 506.098 2002.94 506.098H2019.41C2025.29 506.098 2028.24 509.039 2028.24 514.922V538.451H2029.02C2035.29 526.686 2042.68 517.797 2051.18 511.784C2059.67 505.771 2070.26 502.765 2082.94 502.765C2091.31 502.765 2097.19 503.484 2100.59 504.922C2103.6 506.098 2104.71 508.059 2103.92 510.804L2099.41 526.882C2098.76 529.235 2097.06 530.15 2094.31 529.627C2089.74 528.712 2085.43 528.255 2081.37 528.255C2066.08 528.255 2053.46 535.183 2043.53 549.039C2033.6 562.765 2028.63 581.523 2028.63 605.314V703.157C2028.63 709.039 2025.69 711.98 2019.8 711.98H2002.94ZM2144.51 711.98C2138.63 711.98 2135.69 709.039 2135.69 703.157V514.922C2135.69 509.039 2138.63 506.098 2144.51 506.098H2161.37C2167.26 506.098 2170.2 509.039 2170.2 514.922V703.157C2170.2 709.039 2167.26 711.98 2161.37 711.98H2144.51ZM2144.51 468.843C2138.63 468.843 2135.69 465.902 2135.69 460.02V443.157C2135.69 437.274 2138.63 434.333 2144.51 434.333H2161.37C2167.26 434.333 2170.2 437.274 2170.2 443.157V460.02C2170.2 465.902 2167.26 468.843 2161.37 468.843H2144.51ZM2214.71 657.078C2214.71 633.81 2225.56 616.752 2247.26 605.902C2269.09 595.052 2301.63 588.712 2344.9 586.882V573.549C2344.9 561.261 2342.09 550.673 2336.47 541.784C2330.98 532.765 2320 528.255 2303.53 528.255C2293.07 528.255 2284.71 529.301 2278.43 531.392C2272.16 533.353 2266.41 536.033 2261.18 539.431C2256.08 542.699 2251.18 546.948 2246.47 552.176C2242.94 556.098 2239.61 556.294 2236.47 552.765L2226.28 541C2223.4 537.732 2224.38 533.81 2229.22 529.235C2236.14 522.699 2242.88 517.797 2249.41 514.529C2255.95 511.261 2264.05 508.516 2273.73 506.294C2283.53 503.941 2293.46 502.765 2303.53 502.765C2330.85 502.765 2350.33 509.823 2361.96 523.941C2373.6 537.928 2379.41 557.144 2379.41 581.588V703.157C2379.41 709.039 2376.47 711.98 2370.59 711.98H2352.94C2347.84 711.98 2345.29 709.039 2345.29 703.157V693.549H2344.9C2334.58 701.654 2324.44 707.34 2314.51 710.608C2304.71 713.745 2293.73 715.314 2281.57 715.314C2260.13 715.314 2243.6 710.216 2231.96 700.02C2220.46 689.693 2214.71 675.379 2214.71 657.078ZM2250.39 657.863C2250.39 665.967 2252.09 672.503 2255.49 677.471C2258.89 682.307 2263.6 685.444 2269.61 686.882C2275.62 688.189 2281.9 688.843 2288.43 688.843C2298.5 688.843 2308.04 687.863 2317.06 685.902C2326.08 683.941 2335.36 678.778 2344.9 670.412V612.569C2318.5 614.529 2299.67 616.948 2288.43 619.823C2277.19 622.569 2268.04 627.405 2260.98 634.333C2253.92 641.131 2250.39 648.974 2250.39 657.863ZM2584.31 711.98C2577.78 711.98 2574.51 708.386 2574.51 701.196V441.588C2574.51 434.399 2577.78 430.804 2584.31 430.804H2656.67C2712.09 430.804 2750.59 443.091 2772.16 467.667C2793.86 492.111 2804.71 526.556 2804.71 571C2804.71 615.444 2793.86 650.085 2772.16 674.922C2750.59 699.627 2712.09 711.98 2656.67 711.98H2584.31ZM2612.16 679.823H2654.9C2698.04 679.823 2727.06 670.673 2741.96 652.373C2756.99 634.072 2764.51 606.948 2764.51 571C2764.51 535.052 2756.99 507.993 2741.96 489.823C2727.06 471.654 2698.04 462.569 2654.9 462.569H2612.16V679.823ZM2839.41 609.039C2839.41 578.32 2847.52 552.961 2863.73 532.961C2880.07 512.83 2903.92 502.765 2935.29 502.765C2966.67 502.765 2990.46 512.83 3006.67 532.961C3023.01 552.961 3031.18 578.32 3031.18 609.039C3031.18 639.758 3023.01 665.183 3006.67 685.314C2990.46 705.314 2966.67 715.314 2935.29 715.314C2903.92 715.314 2880.07 705.314 2863.73 685.314C2847.52 665.183 2839.41 639.758 2839.41 609.039ZM2875.88 609.039C2875.88 636.49 2881.31 656.817 2892.16 670.02C2903.01 683.222 2917.39 689.823 2935.29 689.823C2953.2 689.823 2967.58 683.222 2978.43 670.02C2989.28 656.817 2994.71 636.49 2994.71 609.039C2994.71 581.588 2989.28 561.261 2978.43 548.059C2967.58 534.856 2953.2 528.255 2935.29 528.255C2917.39 528.255 2903.01 534.856 2892.16 548.059C2881.31 561.261 2875.88 581.588 2875.88 609.039ZM3084.51 711.98C3078.63 711.98 3075.69 709.039 3075.69 703.157V514.922C3075.69 509.039 3078.63 506.098 3084.51 506.098H3100.98C3106.86 506.098 3109.8 509.039 3109.8 514.922V530.608H3110.59C3119.09 521.196 3128.24 514.203 3138.04 509.627C3147.84 505.052 3160.07 502.765 3174.71 502.765C3198.5 502.765 3215.56 509.497 3225.88 522.961C3236.34 536.294 3241.57 554.595 3241.57 577.863V703.157C3241.57 709.039 3238.63 711.98 3232.75 711.98H3215.88C3210 711.98 3207.06 709.039 3207.06 703.157V587.274C3207.06 561.654 3202.81 545.444 3194.31 538.647C3185.82 531.719 3175.03 528.255 3161.96 528.255C3144.97 528.255 3132.09 533.353 3123.33 543.549C3114.58 553.614 3110.2 570.935 3110.2 595.51V703.157C3110.2 709.039 3107.26 711.98 3101.37 711.98H3084.51ZM3286.86 531.98C3280.98 531.98 3278.04 529.693 3278.04 525.118V512.961C3278.04 508.386 3280.98 506.098 3286.86 506.098H3310V488.451C3310 485.837 3310.65 483.353 3311.96 481L3325.69 456.098C3328.17 451.523 3330.2 449.235 3331.77 449.235H3338.63C3342.55 449.235 3344.51 451.523 3344.51 456.098V506.098H3386.28C3392.16 506.098 3395.1 508.386 3395.1 512.961V525.118C3395.1 529.693 3392.16 531.98 3386.28 531.98H3344.51V656.882C3344.51 670.608 3346.54 679.562 3350.59 683.745C3354.77 687.797 3359.74 689.823 3365.49 689.823C3369.94 689.823 3375.23 688.516 3381.37 685.902C3387.65 683.288 3391.96 681.065 3394.31 679.235C3396.67 677.405 3398.5 677.993 3399.8 681L3406.28 696.098C3407.32 698.712 3406.54 700.804 3403.92 702.373C3398.82 705.379 3391.37 708.32 3381.57 711.196C3371.77 713.941 3361.96 715.314 3352.16 715.314C3338.56 715.314 3328.11 710.412 3320.78 700.608C3313.6 690.804 3310 676.948 3310 659.039V531.98H3286.86ZM3437.45 692.765C3433.4 688.974 3432.55 685.444 3434.9 682.176L3443.73 669.823C3446.6 665.902 3450.85 666.098 3456.47 670.412C3464.18 676.294 3472.75 681 3482.16 684.529C3491.7 688.059 3502.55 689.823 3514.71 689.823C3521.9 689.823 3528.3 688.974 3533.92 687.274C3539.54 685.444 3544.44 682.111 3548.63 677.274C3552.94 672.438 3555.1 665.967 3555.1 657.863C3555.1 653.157 3554.05 648.712 3551.96 644.529C3550 640.346 3546.86 637.013 3542.55 634.529C3538.37 631.915 3534.25 629.889 3530.2 628.451C3523.53 625.967 3516.86 623.941 3510.2 622.373C3503.66 620.673 3495.03 618.124 3484.31 614.725C3477.12 612.503 3470.33 609.366 3463.92 605.314C3457.52 601.131 3451.9 595.51 3447.06 588.451C3442.35 581.392 3440 571.654 3440 559.235C3440 546.556 3443.86 535.64 3451.57 526.49C3459.28 517.34 3468.95 511.131 3480.59 507.863C3492.22 504.464 3503.53 502.765 3514.51 502.765C3530.72 502.765 3543.73 504.66 3553.53 508.451C3563.46 512.111 3572.03 516.49 3579.22 521.588C3583.4 524.595 3583.99 528.059 3580.98 531.98L3572.16 543.745C3569.41 547.536 3565.16 547.405 3559.41 543.353C3554.58 539.954 3547.71 536.752 3538.82 533.745C3529.94 530.739 3522.16 529.235 3515.49 529.235C3507.26 529.235 3500.2 530.15 3494.31 531.98C3488.43 533.81 3483.66 536.948 3480 541.392C3476.34 545.837 3474.51 551.065 3474.51 557.078C3474.51 561.654 3475.23 565.771 3476.67 569.431C3478.11 572.961 3480.78 576.229 3484.71 579.235C3488.63 582.242 3494.12 584.66 3501.18 586.49C3512.16 589.366 3522.16 591.98 3531.18 594.333C3540.33 596.686 3548.56 599.562 3555.88 602.961C3565.43 607.405 3572.75 612.307 3577.84 617.667C3583.07 623.026 3586.67 628.843 3588.63 635.118C3590.59 641.261 3591.57 648.124 3591.57 655.706C3591.57 669.693 3587.39 681.523 3579.02 691.196C3570.78 700.869 3561.57 707.34 3551.37 710.608C3541.18 713.745 3528.89 715.314 3514.51 715.314C3495.03 715.314 3478.3 712.569 3464.31 707.078C3450.46 701.457 3441.5 696.686 3437.45 692.765ZM3619.41 609.039C3619.41 578.32 3627.52 552.961 3643.73 532.961C3660.07 512.83 3683.92 502.765 3715.29 502.765C3746.67 502.765 3770.46 512.83 3786.67 532.961C3803.01 552.961 3811.18 578.32 3811.18 609.039C3811.18 639.758 3803.01 665.183 3786.67 685.314C3770.46 705.314 3746.67 715.314 3715.29 715.314C3683.92 715.314 3660.07 705.314 3643.73 685.314C3627.52 665.183 3619.41 639.758 3619.41 609.039ZM3655.88 609.039C3655.88 636.49 3661.31 656.817 3672.16 670.02C3683.01 683.222 3697.39 689.823 3715.29 689.823C3733.2 689.823 3747.58 683.222 3758.43 670.02C3769.28 656.817 3774.71 636.49 3774.71 609.039C3774.71 581.588 3769.28 561.261 3758.43 548.059C3747.58 534.856 3733.2 528.255 3715.29 528.255C3697.39 528.255 3683.01 534.856 3672.16 548.059C3661.31 561.261 3655.88 581.588 3655.88 609.039ZM3840 515.706C3837.78 509.301 3839.54 506.098 3845.29 506.098H3866.67C3870.85 506.098 3873.79 508.647 3875.49 513.745L3917.06 643.157C3920.46 653.745 3922.75 661.065 3923.92 665.118C3925.23 669.039 3926.41 673.941 3927.45 679.823H3928.24C3929.28 673.941 3930.39 669.039 3931.57 665.118C3932.88 661.065 3935.23 653.745 3938.63 643.157L3980.2 513.745C3981.9 508.647 3984.84 506.098 3989.02 506.098H4010.39C4016.14 506.098 4017.91 509.301 4015.69 515.706L3951.37 700.02C3948.63 707.993 3945.1 711.98 3940.78 711.98H3914.9C3910.59 711.98 3907.06 707.993 3904.31 700.02L3840 515.706ZM4037.84 657.078C4037.84 633.81 4048.69 616.752 4070.39 605.902C4092.22 595.052 4124.77 588.712 4168.04 586.882V573.549C4168.04 561.261 4165.23 550.673 4159.61 541.784C4154.12 532.765 4143.14 528.255 4126.67 528.255C4116.21 528.255 4107.84 529.301 4101.57 531.392C4095.29 533.353 4089.54 536.033 4084.31 539.431C4079.22 542.699 4074.31 546.948 4069.61 552.176C4066.08 556.098 4062.75 556.294 4059.61 552.765L4049.41 541C4046.54 537.732 4047.52 533.81 4052.35 529.235C4059.28 522.699 4066.01 517.797 4072.55 514.529C4079.09 511.261 4087.19 508.516 4096.86 506.294C4106.67 503.941 4116.6 502.765 4126.67 502.765C4153.99 502.765 4173.46 509.823 4185.1 523.941C4196.73 537.928 4202.55 557.144 4202.55 581.588V703.157C4202.55 709.039 4199.61 711.98 4193.73 711.98H4176.08C4170.98 711.98 4168.43 709.039 4168.43 703.157V693.549H4168.04C4157.71 701.654 4147.58 707.34 4137.65 710.608C4127.84 713.745 4116.86 715.314 4104.71 715.314C4083.27 715.314 4066.73 710.216 4055.1 700.02C4043.6 689.693 4037.84 675.379 4037.84 657.078ZM4073.53 657.863C4073.53 665.967 4075.23 672.503 4078.63 677.471C4082.03 682.307 4086.73 685.444 4092.75 686.882C4098.76 688.189 4105.03 688.843 4111.57 688.843C4121.63 688.843 4131.18 687.863 4140.2 685.902C4149.22 683.941 4158.5 678.778 4168.04 670.412V612.569C4141.63 614.529 4122.81 616.948 4111.57 619.823C4100.33 622.569 4091.18 627.405 4084.12 634.333C4077.06 641.131 4073.53 648.974 4073.53 657.863Z" fill="#F7F7F7"/>
<path d="M1773.53 235.431C1773.53 212.163 1784.38 195.104 1806.08 184.255C1827.91 173.405 1860.46 167.065 1903.73 165.235V151.902C1903.73 139.614 1900.92 129.026 1895.29 120.137C1889.8 111.118 1878.82 106.608 1862.35 106.608C1851.9 106.608 1843.53 107.654 1837.26 109.745C1830.98 111.706 1825.23 114.386 1820 117.784C1814.9 121.052 1810 125.301 1805.29 130.529C1801.77 134.451 1798.43 134.647 1795.29 131.118L1785.1 119.353C1782.22 116.085 1783.2 112.163 1788.04 107.588C1794.97 101.052 1801.7 96.1502 1808.24 92.8823C1814.77 89.6143 1822.88 86.8692 1832.55 84.647C1842.35 82.294 1852.29 81.1176 1862.35 81.1176C1889.67 81.1176 1909.15 88.1764 1920.78 102.294C1932.42 116.281 1938.24 135.497 1938.24 159.941V281.51C1938.24 287.392 1935.29 290.333 1929.41 290.333H1911.77C1906.67 290.333 1904.12 287.392 1904.12 281.51V271.902H1903.73C1893.4 280.006 1883.27 285.693 1873.33 288.961C1863.53 292.098 1852.55 293.667 1840.39 293.667C1818.95 293.667 1802.42 288.569 1790.78 278.372C1779.28 268.046 1773.53 253.732 1773.53 235.431ZM1809.22 236.216C1809.22 244.32 1810.92 250.856 1814.31 255.823C1817.71 260.66 1822.42 263.797 1828.43 265.235C1834.44 266.542 1840.72 267.196 1847.26 267.196C1857.32 267.196 1866.86 266.216 1875.88 264.255C1884.9 262.294 1894.18 257.131 1903.73 248.765V190.921C1877.32 192.882 1858.5 195.301 1847.26 198.176C1836.01 200.921 1826.86 205.758 1819.8 212.686C1812.75 219.484 1809.22 227.327 1809.22 236.216ZM2002.94 290.333C1997.06 290.333 1994.12 287.392 1994.12 281.51V9.74501C1994.12 3.86266 1997.06 0.921483 2002.94 0.921483H2019.8C2025.69 0.921483 2028.63 3.86266 2028.63 9.74501V172.882C2028.63 176.804 2028.5 180.725 2028.24 184.647H2028.63L2108.04 89.5489C2110.92 86.1502 2114.38 84.4509 2118.43 84.4509H2136.28C2146.21 84.4509 2147.91 88.3071 2141.37 96.0195L2079.8 169.353L2150.2 278.765C2155.16 286.477 2153.46 290.333 2145.1 290.333H2125.88C2121.57 290.333 2117.84 287.915 2114.71 283.078L2058.24 195.039L2028.63 230.333V281.51C2028.63 287.392 2025.69 290.333 2019.8 290.333H2002.94ZM2179.8 187.392C2179.8 154.974 2187.91 129.157 2204.12 109.941C2220.33 90.7254 2243.53 81.1176 2273.73 81.1176C2298.82 81.1176 2319.61 89.9411 2336.08 107.588C2352.68 125.104 2360.98 153.144 2360.98 191.706C2360.98 197.588 2358.3 200.529 2352.94 200.529H2216.28C2218.5 225.758 2225.29 243.34 2236.67 253.274C2248.04 263.078 2260.92 267.98 2275.29 267.98C2290.46 267.98 2302.09 265.431 2310.2 260.333C2318.3 255.235 2324.25 250.203 2328.04 245.235C2332.22 239.745 2336.28 238.699 2340.2 242.098L2351.77 252.098C2354.77 254.712 2354.77 258.307 2351.77 262.882C2349.28 266.673 2342.16 272.752 2330.39 281.118C2318.76 289.484 2300.39 293.667 2275.29 293.667C2242.61 293.667 2218.5 284.059 2202.94 264.843C2187.52 245.627 2179.8 219.81 2179.8 187.392ZM2215.49 175.039H2326.28C2325.75 156.738 2321.05 140.725 2312.16 127C2303.27 113.144 2290.2 106.216 2272.94 106.216C2257.78 106.216 2244.9 111.314 2234.31 121.51C2223.73 131.575 2217.45 149.418 2215.49 175.039ZM2398.24 195.627C2392.35 195.627 2389.41 193.34 2389.41 188.765V175.039C2389.41 170.464 2392.35 168.176 2398.24 168.176H2491.96C2497.84 168.176 2500.78 170.464 2500.78 175.039V188.765C2500.78 193.34 2497.84 195.627 2491.96 195.627H2398.24ZM2545.1 183.078V19.9411C2545.1 12.7515 2548.37 9.15678 2554.9 9.15678H2572.94C2579.48 9.15678 2582.75 12.7515 2582.75 19.9411V177.196C2582.75 213.797 2587.91 237.719 2598.24 248.961C2608.69 260.072 2625.69 265.627 2649.22 265.627C2672.75 265.627 2689.67 260.072 2700 248.961C2710.46 237.719 2715.69 213.797 2715.69 177.196V19.9411C2715.69 12.7515 2718.95 9.15678 2725.49 9.15678H2743.53C2750.07 9.15678 2753.33 12.7515 2753.33 19.9411V183.078C2753.33 224.516 2743.79 253.732 2724.71 270.725C2705.75 287.719 2680.59 296.216 2649.22 296.216C2617.84 296.216 2592.61 287.719 2573.53 270.725C2554.58 253.732 2545.1 224.516 2545.1 183.078ZM2823.33 368.765C2817.45 368.765 2814.51 365.823 2814.51 359.941V93.2744C2814.51 87.3921 2817.45 84.4509 2823.33 84.4509H2839.8C2844.51 84.4509 2847.06 87.3921 2847.45 93.2744L2848.63 108.961H2849.02C2856.21 100.333 2864.31 93.5359 2873.33 88.5685C2882.35 83.6012 2894.38 81.1176 2909.41 81.1176C2935.56 81.1176 2955.43 91.8365 2969.02 113.274C2982.61 134.582 2989.41 159.287 2989.41 187.392C2989.41 215.497 2982.61 240.268 2969.02 261.706C2955.43 283.013 2935.56 293.667 2909.41 293.667C2894.38 293.667 2882.35 291.183 2873.33 286.216C2864.31 281.248 2856.21 274.451 2849.02 265.823H2848.63C2848.89 269.745 2849.02 273.732 2849.02 277.784V359.941C2849.02 365.823 2846.08 368.765 2840.2 368.765H2823.33ZM2849.02 209.941C2849.02 229.549 2853.66 244.189 2862.94 253.863C2872.35 263.405 2884.12 268.176 2898.24 268.176C2918.11 268.176 2932.16 260.725 2940.39 245.823C2948.76 230.921 2952.94 211.444 2952.94 187.392C2952.94 163.34 2948.76 143.863 2940.39 128.961C2932.16 114.059 2918.11 106.608 2898.24 106.608C2884.12 106.608 2872.35 111.444 2862.94 121.118C2853.66 130.66 2849.02 145.235 2849.02 164.843V209.941ZM3159.22 290.333C3152.42 290.333 3150.65 286.02 3153.92 277.392L3251.57 21.1176C3254.58 13.1437 3258.89 9.15678 3264.51 9.15678H3291.96C3297.58 9.15678 3301.9 13.1437 3304.9 21.1176L3402.55 277.392C3405.82 286.02 3404.05 290.333 3397.26 290.333H3377.26C3370.33 290.333 3365.62 287.131 3363.14 280.725L3338.63 215.823H3217.84L3193.33 280.725C3190.85 287.131 3186.14 290.333 3179.22 290.333H3159.22ZM3230.2 183.667H3326.28L3296.28 105.235C3293.53 97.9149 3290.78 89.8104 3288.04 80.9215C3285.43 72.0326 3282.29 59.4182 3278.63 43.0783H3277.84C3274.18 59.4182 3270.98 72.0326 3268.24 80.9215C3265.62 89.8104 3262.94 97.9149 3260.2 105.235L3230.2 183.667ZM3443.33 290.333C3437.45 290.333 3434.51 287.392 3434.51 281.51V93.2744C3434.51 87.3921 3437.45 84.4509 3443.33 84.4509H3459.8C3465.69 84.4509 3468.63 87.3921 3468.63 93.2744V116.804H3469.41C3475.69 105.039 3483.07 96.1502 3491.57 90.1372C3500.07 84.1241 3510.65 81.1176 3523.33 81.1176C3531.7 81.1176 3537.58 81.8365 3540.98 83.2744C3543.99 84.4509 3545.1 86.4117 3544.31 89.1568L3539.8 105.235C3539.15 107.588 3537.45 108.503 3534.71 107.98C3530.13 107.065 3525.82 106.608 3521.77 106.608C3506.47 106.608 3493.86 113.536 3483.92 127.392C3473.99 141.118 3469.02 159.876 3469.02 183.667V281.51C3469.02 287.392 3466.08 290.333 3460.2 290.333H3443.33ZM3566.08 110.333C3560.2 110.333 3557.26 108.046 3557.26 103.471V91.3136C3557.26 86.7385 3560.2 84.4509 3566.08 84.4509H3589.22V66.8038C3589.22 64.1895 3589.87 61.7058 3591.18 59.3529L3604.9 34.4509C3607.39 29.8757 3609.41 27.5881 3610.98 27.5881H3617.84C3621.77 27.5881 3623.73 29.8757 3623.73 34.4509V84.4509H3665.49C3671.37 84.4509 3674.31 86.7385 3674.31 91.3136V103.471C3674.31 108.046 3671.37 110.333 3665.49 110.333H3623.73V235.235C3623.73 248.961 3625.75 257.915 3629.8 262.098C3633.99 266.15 3638.95 268.176 3644.71 268.176C3649.15 268.176 3654.44 266.869 3660.59 264.255C3666.86 261.64 3671.18 259.418 3673.53 257.588C3675.88 255.758 3677.71 256.346 3679.02 259.353L3685.49 274.451C3686.54 277.065 3685.75 279.157 3683.14 280.725C3678.04 283.732 3670.59 286.673 3660.78 289.549C3650.98 292.294 3641.18 293.667 3631.37 293.667C3617.78 293.667 3607.32 288.765 3600 278.961C3592.81 269.157 3589.22 255.301 3589.22 237.392V110.333H3566.08ZM3733.53 290.333C3727.65 290.333 3724.71 287.392 3724.71 281.51V93.2744C3724.71 87.3921 3727.65 84.4509 3733.53 84.4509H3750.39C3756.28 84.4509 3759.22 87.3921 3759.22 93.2744V281.51C3759.22 287.392 3756.28 290.333 3750.39 290.333H3733.53ZM3733.53 47.196C3727.65 47.196 3724.71 44.2548 3724.71 38.3725V21.5097C3724.71 15.6274 3727.65 12.6862 3733.53 12.6862H3750.39C3756.28 12.6862 3759.22 15.6274 3759.22 21.5097V38.3725C3759.22 44.2548 3756.28 47.196 3750.39 47.196H3733.53ZM3806.86 271.118C3802.81 267.327 3801.96 263.797 3804.31 260.529L3813.14 248.176C3816.01 244.255 3820.26 244.451 3825.88 248.765C3833.6 254.647 3842.16 259.353 3851.57 262.882C3861.11 266.412 3871.96 268.176 3884.12 268.176C3891.31 268.176 3897.71 267.327 3903.33 265.627C3908.95 263.797 3913.86 260.464 3918.04 255.627C3922.35 250.791 3924.51 244.32 3924.51 236.216C3924.51 231.51 3923.46 227.065 3921.37 222.882C3919.41 218.699 3916.28 215.366 3911.96 212.882C3907.78 210.268 3903.66 208.242 3899.61 206.804C3892.94 204.32 3886.28 202.294 3879.61 200.725C3873.07 199.026 3864.45 196.477 3853.73 193.078C3846.54 190.856 3839.74 187.719 3833.33 183.667C3826.93 179.484 3821.31 173.863 3816.47 166.804C3811.77 159.745 3809.41 150.006 3809.41 137.588C3809.41 124.908 3813.27 113.993 3820.98 104.843C3828.69 95.6927 3838.37 89.4836 3850 86.2156C3861.63 82.8169 3872.94 81.1176 3883.92 81.1176C3900.13 81.1176 3913.14 83.013 3922.94 86.8038C3932.88 90.464 3941.44 94.8431 3948.63 99.9411C3952.81 102.948 3953.4 106.412 3950.39 110.333L3941.57 122.098C3938.82 125.889 3934.58 125.758 3928.82 121.706C3923.99 118.307 3917.12 115.104 3908.24 112.098C3899.35 109.091 3891.57 107.588 3884.9 107.588C3876.67 107.588 3869.61 108.503 3863.73 110.333C3857.84 112.163 3853.07 115.301 3849.41 119.745C3845.75 124.189 3843.92 129.418 3843.92 135.431C3843.92 140.006 3844.64 144.124 3846.08 147.784C3847.52 151.314 3850.2 154.582 3854.12 157.588C3858.04 160.595 3863.53 163.013 3870.59 164.843C3881.57 167.719 3891.57 170.333 3900.59 172.686C3909.74 175.039 3917.97 177.915 3925.29 181.314C3934.84 185.758 3942.16 190.66 3947.26 196.02C3952.48 201.379 3956.08 207.196 3958.04 213.471C3960 219.614 3960.98 226.477 3960.98 234.059C3960.98 248.046 3956.8 259.876 3948.43 269.549C3940.2 279.222 3930.98 285.693 3920.78 288.961C3910.59 292.098 3898.3 293.667 3883.92 293.667C3864.45 293.667 3847.71 290.921 3833.73 285.431C3819.87 279.81 3810.92 275.039 3806.86 271.118ZM3990 110.333C3984.12 110.333 3981.18 108.046 3981.18 103.471V91.3136C3981.18 86.7385 3984.12 84.4509 3990 84.4509H4013.14V66.8038C4013.14 64.1895 4013.79 61.7058 4015.1 59.3529L4028.82 34.4509C4031.31 29.8757 4033.33 27.5881 4034.9 27.5881H4041.77C4045.69 27.5881 4047.65 29.8757 4047.65 34.4509V84.4509H4089.41C4095.29 84.4509 4098.24 86.7385 4098.24 91.3136V103.471C4098.24 108.046 4095.29 110.333 4089.41 110.333H4047.65V235.235C4047.65 248.961 4049.67 257.915 4053.73 262.098C4057.91 266.15 4062.88 268.176 4068.63 268.176C4073.07 268.176 4078.37 266.869 4084.51 264.255C4090.78 261.64 4095.1 259.418 4097.45 257.588C4099.8 255.758 4101.63 256.346 4102.94 259.353L4109.41 274.451C4110.46 277.065 4109.67 279.157 4107.06 280.725C4101.96 283.732 4094.51 286.673 4084.71 289.549C4074.9 292.294 4065.1 293.667 4055.29 293.667C4041.7 293.667 4031.24 288.765 4023.92 278.961C4016.73 269.157 4013.14 255.301 4013.14 237.392V110.333H3990Z" fill="#F7F7F7"/>
</svg>
